<svg width="1000.7" height="74.801" viewBox="0 0 1000.7 74.801" xmlns="http://www.w3.org/2000/svg"><g id="svgGroup" stroke-linecap="round" fill-rule="evenodd" font-size="9pt" stroke="#ffffff" stroke-width="0.25mm" fill="#ffffff" style="stroke:#ffffff;stroke-width:0.25mm;fill:#ffffff"><path d="M 816.3 50.1 L 770.6 50.1 L 770.6 44.8 L 812.5 44.8 L 809.7 46.9 A 22.634 22.634 0 0 0 808.967 41.04 A 19.05 19.05 0 0 0 807.25 36.75 Q 804.8 32.3 800.6 29.8 A 17.782 17.782 0 0 0 793.407 27.438 A 22.358 22.358 0 0 0 790.9 27.3 A 20.019 20.019 0 0 0 784.727 28.229 A 17.942 17.942 0 0 0 781.2 29.8 Q 776.9 32.3 774.5 36.8 A 20.365 20.365 0 0 0 772.29 43.941 A 25.622 25.622 0 0 0 772.1 47.1 L 772.1 48.2 Q 772.1 54.2 774.75 58.75 Q 777.4 63.3 782.15 65.85 A 21.44 21.44 0 0 0 789.855 68.22 A 26.835 26.835 0 0 0 793 68.4 A 23.898 23.898 0 0 0 800.103 67.363 A 22.114 22.114 0 0 0 801.95 66.7 Q 806.1 65 809.1 61.5 L 813.1 66.1 Q 809.6 70.3 804.35 72.5 Q 799.1 74.7 792.8 74.7 A 32.996 32.996 0 0 1 785.128 73.845 A 26.321 26.321 0 0 1 778.4 71.25 Q 772.2 67.8 768.7 61.75 A 26.104 26.104 0 0 1 765.367 51.229 A 32.409 32.409 0 0 1 765.2 47.9 Q 765.2 40.1 768.55 34.1 Q 771.9 28.1 777.75 24.65 A 25.072 25.072 0 0 1 789.544 21.231 A 30.064 30.064 0 0 1 790.9 21.2 A 27.896 27.896 0 0 1 798.5 22.202 A 23.815 23.815 0 0 1 804.05 24.55 Q 809.8 27.9 813.1 33.95 A 26.916 26.916 0 0 1 816.109 43.373 A 34.255 34.255 0 0 1 816.4 47.9 A 11.163 11.163 0 0 1 816.373 48.662 A 12.957 12.957 0 0 1 816.35 48.95 Q 816.3 49.5 816.3 50.1 Z M 1000.6 50.1 L 954.9 50.1 L 954.9 44.8 L 996.8 44.8 L 994 46.9 A 22.634 22.634 0 0 0 993.267 41.04 A 19.05 19.05 0 0 0 991.55 36.75 Q 989.1 32.3 984.9 29.8 A 17.782 17.782 0 0 0 977.707 27.438 A 22.358 22.358 0 0 0 975.2 27.3 A 20.019 20.019 0 0 0 969.027 28.229 A 17.942 17.942 0 0 0 965.5 29.8 Q 961.2 32.3 958.8 36.8 A 20.365 20.365 0 0 0 956.59 43.941 A 25.622 25.622 0 0 0 956.4 47.1 L 956.4 48.2 Q 956.4 54.2 959.05 58.75 Q 961.7 63.3 966.45 65.85 A 21.44 21.44 0 0 0 974.155 68.22 A 26.835 26.835 0 0 0 977.3 68.4 A 23.898 23.898 0 0 0 984.403 67.363 A 22.114 22.114 0 0 0 986.25 66.7 Q 990.4 65 993.4 61.5 L 997.4 66.1 Q 993.9 70.3 988.65 72.5 Q 983.4 74.7 977.1 74.7 A 32.996 32.996 0 0 1 969.428 73.845 A 26.321 26.321 0 0 1 962.7 71.25 Q 956.5 67.8 953 61.75 A 26.104 26.104 0 0 1 949.667 51.229 A 32.409 32.409 0 0 1 949.5 47.9 Q 949.5 40.1 952.85 34.1 Q 956.2 28.1 962.05 24.65 A 25.072 25.072 0 0 1 973.844 21.231 A 30.064 30.064 0 0 1 975.2 21.2 A 27.896 27.896 0 0 1 982.8 22.202 A 23.815 23.815 0 0 1 988.35 24.55 Q 994.1 27.9 997.4 33.95 A 26.916 26.916 0 0 1 1000.409 43.373 A 34.255 34.255 0 0 1 1000.7 47.9 A 11.163 11.163 0 0 1 1000.673 48.662 A 12.957 12.957 0 0 1 1000.65 48.95 Q 1000.6 49.5 1000.6 50.1 Z M 620.6 65.7 L 623.5 60 Q 626.842 63.252 632.265 65.566 A 43.174 43.174 0 0 0 633.45 66.05 Q 639.7 68.5 646.6 68.5 A 43.441 43.441 0 0 0 650.848 68.305 Q 654.627 67.933 657.35 66.85 A 17.371 17.371 0 0 0 660.15 65.453 Q 661.678 64.497 662.741 63.299 A 9.733 9.733 0 0 0 663.45 62.4 Q 665.4 59.6 665.4 56.2 A 11.653 11.653 0 0 0 665.07 53.35 A 8.348 8.348 0 0 0 663.05 49.6 A 14.714 14.714 0 0 0 659.546 46.885 A 19.396 19.396 0 0 0 656.9 45.65 A 61.914 61.914 0 0 0 652.105 44.052 A 77.637 77.637 0 0 0 648.5 43.1 Q 643.9 42 639.3 40.75 Q 634.7 39.5 630.85 37.4 Q 627 35.3 624.65 31.85 Q 622.594 28.832 622.337 24.169 A 24.838 24.838 0 0 1 622.3 22.8 Q 622.3 17.6 625.05 13.25 A 17.06 17.06 0 0 1 629.479 8.593 A 23.821 23.821 0 0 1 633.5 6.25 A 25.657 25.657 0 0 1 638.879 4.486 Q 641.426 3.932 644.391 3.725 A 53.146 53.146 0 0 1 648.1 3.6 Q 654 3.6 659.8 5.25 A 38.141 38.141 0 0 1 665.433 7.32 A 29.62 29.62 0 0 1 669.8 9.8 L 667.3 15.7 Q 662.8 12.7 657.75 11.3 A 38.599 38.599 0 0 0 651.273 10.066 A 32.929 32.929 0 0 0 648 9.9 A 38.588 38.588 0 0 0 643.756 10.12 Q 640.227 10.511 637.6 11.6 A 17.267 17.267 0 0 0 634.827 13.037 Q 633.235 14.067 632.145 15.366 A 10.044 10.044 0 0 0 631.55 16.15 Q 629.6 19 629.6 22.6 A 11.653 11.653 0 0 0 629.93 25.45 A 8.348 8.348 0 0 0 631.95 29.2 Q 634.3 31.7 638.15 33.1 A 71.268 71.268 0 0 0 643.121 34.695 A 88.38 88.38 0 0 0 646.6 35.6 Q 651.2 36.7 655.75 38 A 44.036 44.036 0 0 1 662.432 40.489 A 39.208 39.208 0 0 1 664.15 41.35 A 17.438 17.438 0 0 1 669.579 45.771 A 16.864 16.864 0 0 1 670.35 46.8 A 12.444 12.444 0 0 1 672.131 50.795 Q 672.7 52.993 672.7 55.7 Q 672.7 60.8 669.9 65.15 A 17.284 17.284 0 0 1 665.464 69.769 A 24.168 24.168 0 0 1 661.35 72.15 A 25.822 25.822 0 0 1 656.142 73.866 Q 653.518 74.45 650.447 74.669 A 54.141 54.141 0 0 1 646.6 74.8 Q 638.8 74.8 631.65 72.25 Q 625.966 70.223 622.336 67.28 A 20.11 20.11 0 0 1 620.6 65.7 Z M 7.7 74.2 L 0 74.2 L 32 4.2 L 39.3 4.2 L 71.3 74.2 L 63.5 74.2 L 34.1 8.5 L 37.1 8.5 L 7.7 74.2 Z M 203.9 74.2 L 196.8 74.2 L 196.8 21.7 L 203.6 21.7 L 203.6 36.1 L 202.5 33.4 Q 205 27.7 210.5 24.45 A 23 23 0 0 1 218.409 21.62 A 30.848 30.848 0 0 1 223.6 21.2 A 28.355 28.355 0 0 1 229.436 21.775 A 21.96 21.96 0 0 1 234.85 23.65 Q 239.7 26.1 242.45 31.1 A 20.661 20.661 0 0 1 244.424 36.359 Q 245.2 39.663 245.2 43.7 L 245.2 74.2 L 238.1 74.2 L 238.1 44.4 A 26.47 26.47 0 0 0 237.695 39.608 Q 237.207 36.964 236.133 34.891 A 12.661 12.661 0 0 0 233.95 31.85 Q 229.909 27.712 222.693 27.603 A 26.007 26.007 0 0 0 222.3 27.6 A 23.5 23.5 0 0 0 217.369 28.095 A 17.937 17.937 0 0 0 212.55 29.85 Q 208.4 32.1 206.15 36.35 A 18.643 18.643 0 0 0 204.362 41.522 Q 203.9 43.882 203.9 46.6 L 203.9 74.2 Z M 838 74.2 L 830.9 74.2 L 830.9 21.7 L 837.7 21.7 L 837.7 36.1 L 836.6 33.4 Q 839.1 27.7 844.6 24.45 A 23 23 0 0 1 852.509 21.62 A 30.848 30.848 0 0 1 857.7 21.2 A 28.355 28.355 0 0 1 863.536 21.775 A 21.96 21.96 0 0 1 868.95 23.65 Q 873.8 26.1 876.55 31.1 A 20.661 20.661 0 0 1 878.524 36.359 Q 879.3 39.663 879.3 43.7 L 879.3 74.2 L 872.2 74.2 L 872.2 44.4 A 26.47 26.47 0 0 0 871.795 39.608 Q 871.307 36.964 870.233 34.891 A 12.661 12.661 0 0 0 868.05 31.85 Q 864.009 27.712 856.793 27.603 A 26.007 26.007 0 0 0 856.4 27.6 A 23.5 23.5 0 0 0 851.469 28.095 A 17.937 17.937 0 0 0 846.65 29.85 Q 842.5 32.1 840.25 36.35 A 18.643 18.643 0 0 0 838.462 41.522 Q 838 43.882 838 46.6 L 838 74.2 Z M 729.7 31.6 L 724.4 35.2 A 17.707 17.707 0 0 0 720.735 31.191 A 15.736 15.736 0 0 0 717.7 29.3 A 19.911 19.911 0 0 0 709.439 27.404 A 23.014 23.014 0 0 0 709 27.4 A 21.166 21.166 0 0 0 702.43 28.396 A 19.092 19.092 0 0 0 698.9 29.95 Q 694.4 32.5 691.8 37.1 Q 689.2 41.7 689.2 47.9 A 24.984 24.984 0 0 0 689.771 53.361 A 19.374 19.374 0 0 0 691.8 58.7 Q 694.4 63.3 698.9 65.85 A 19.767 19.767 0 0 0 707.617 68.36 A 23.735 23.735 0 0 0 709 68.4 A 20.332 20.332 0 0 0 716.175 67.146 A 19.286 19.286 0 0 0 717.7 66.5 Q 721.7 64.6 724.4 60.7 L 729.7 64.3 Q 726.6 69.4 721.2 72.05 A 26.06 26.06 0 0 1 712.069 74.564 A 31.808 31.808 0 0 1 709.1 74.7 A 30.244 30.244 0 0 1 700.847 73.609 A 26.098 26.098 0 0 1 695.15 71.25 Q 689 67.8 685.5 61.75 A 26.104 26.104 0 0 1 682.167 51.229 A 32.409 32.409 0 0 1 682 47.9 Q 682 40 685.5 34 A 26.78 26.78 0 0 1 685.555 33.907 A 24.909 24.909 0 0 1 695.15 24.6 A 27.372 27.372 0 0 1 705.999 21.341 A 33.648 33.648 0 0 1 709.1 21.2 A 29.757 29.757 0 0 1 716.412 22.069 A 25.283 25.283 0 0 1 721.2 23.8 Q 726.6 26.4 729.7 31.6 Z M 940.9 31.6 L 935.6 35.2 A 17.707 17.707 0 0 0 931.935 31.191 A 15.736 15.736 0 0 0 928.9 29.3 A 19.911 19.911 0 0 0 920.639 27.404 A 23.014 23.014 0 0 0 920.2 27.4 A 21.166 21.166 0 0 0 913.63 28.396 A 19.092 19.092 0 0 0 910.1 29.95 Q 905.6 32.5 903 37.1 Q 900.4 41.7 900.4 47.9 A 24.984 24.984 0 0 0 900.971 53.361 A 19.374 19.374 0 0 0 903 58.7 Q 905.6 63.3 910.1 65.85 A 19.767 19.767 0 0 0 918.817 68.36 A 23.735 23.735 0 0 0 920.2 68.4 A 20.332 20.332 0 0 0 927.375 67.146 A 19.286 19.286 0 0 0 928.9 66.5 Q 932.9 64.6 935.6 60.7 L 940.9 64.3 Q 937.8 69.4 932.4 72.05 A 26.06 26.06 0 0 1 923.269 74.564 A 31.808 31.808 0 0 1 920.3 74.7 A 30.244 30.244 0 0 1 912.047 73.609 A 26.098 26.098 0 0 1 906.35 71.25 Q 900.2 67.8 896.7 61.75 A 26.104 26.104 0 0 1 893.367 51.229 A 32.409 32.409 0 0 1 893.2 47.9 Q 893.2 40 896.7 34 A 26.78 26.78 0 0 1 896.755 33.907 A 24.909 24.909 0 0 1 906.35 24.6 A 27.372 27.372 0 0 1 917.199 21.341 A 33.648 33.648 0 0 1 920.3 21.2 A 29.757 29.757 0 0 1 927.612 22.069 A 25.283 25.283 0 0 1 932.4 23.8 Q 937.8 26.4 940.9 31.6 Z M 388.4 74.2 L 359.9 74.2 L 359.9 4.2 L 388.4 4.2 A 47.75 47.75 0 0 1 398.605 5.244 A 37.199 37.199 0 0 1 408.05 8.65 Q 416.5 13.1 421.2 21 A 33.506 33.506 0 0 1 425.673 34.79 A 41.955 41.955 0 0 1 425.9 39.2 A 38.361 38.361 0 0 1 424.574 49.467 A 32.27 32.27 0 0 1 421.2 57.4 Q 416.5 65.3 408.05 69.75 A 38.233 38.233 0 0 1 395.795 73.671 A 49.949 49.949 0 0 1 388.4 74.2 Z M 367.3 10.6 L 367.3 67.8 L 388 67.8 A 39.894 39.894 0 0 0 396.053 67.025 A 29.968 29.968 0 0 0 404.15 64.15 Q 411 60.5 414.8 54.05 A 27.505 27.505 0 0 0 418.405 42.906 A 34.446 34.446 0 0 0 418.6 39.2 Q 418.6 30.7 414.8 24.3 Q 411 17.9 404.15 14.25 A 30.453 30.453 0 0 0 394.892 11.157 A 40.893 40.893 0 0 0 388 10.6 L 367.3 10.6 Z M 153.7 44.5 L 171.8 44.5 L 171.8 49.8 L 153.9 49.8 Q 147.82 49.8 144.716 51.529 A 7.196 7.196 0 0 0 143.35 52.5 A 8.681 8.681 0 0 0 140.408 58.797 A 10.588 10.588 0 0 0 140.4 59.2 A 9.311 9.311 0 0 0 141.094 62.851 Q 141.945 64.871 143.84 66.353 A 10.908 10.908 0 0 0 143.9 66.4 Q 147.4 69.1 153.7 69.1 A 21.942 21.942 0 0 0 158.942 68.501 A 17.126 17.126 0 0 0 164.05 66.35 Q 168.4 63.6 170.4 58.4 L 172 63.3 Q 170 68.5 165.05 71.6 A 19.364 19.364 0 0 1 159.071 74.019 Q 156.577 74.594 153.685 74.684 A 34.965 34.965 0 0 1 152.6 74.7 Q 146.817 74.7 142.523 72.827 A 18.899 18.899 0 0 1 142.35 72.75 A 17.314 17.314 0 0 1 138.617 70.509 A 13.859 13.859 0 0 1 135.7 67.35 A 13.753 13.753 0 0 1 133.43 60.406 A 16.945 16.945 0 0 1 133.4 59.4 A 14.846 14.846 0 0 1 134.494 53.679 A 14.216 14.216 0 0 1 135.35 51.95 A 11.8 11.8 0 0 1 138.387 48.552 Q 139.702 47.536 141.396 46.718 A 21.107 21.107 0 0 1 141.75 46.55 A 19.287 19.287 0 0 1 145.516 45.301 Q 147.456 44.857 149.761 44.659 A 46.173 46.173 0 0 1 153.7 44.5 Z M 556.5 44.5 L 574.6 44.5 L 574.6 49.8 L 556.7 49.8 Q 550.62 49.8 547.516 51.529 A 7.196 7.196 0 0 0 546.15 52.5 A 8.681 8.681 0 0 0 543.208 58.797 A 10.588 10.588 0 0 0 543.2 59.2 A 9.311 9.311 0 0 0 543.894 62.851 Q 544.745 64.871 546.64 66.353 A 10.908 10.908 0 0 0 546.7 66.4 Q 550.2 69.1 556.5 69.1 A 21.942 21.942 0 0 0 561.742 68.501 A 17.126 17.126 0 0 0 566.85 66.35 Q 571.2 63.6 573.2 58.4 L 574.8 63.3 Q 572.8 68.5 567.85 71.6 A 19.364 19.364 0 0 1 561.871 74.019 Q 559.377 74.594 556.485 74.684 A 34.965 34.965 0 0 1 555.4 74.7 Q 549.617 74.7 545.323 72.827 A 18.899 18.899 0 0 1 545.15 72.75 A 17.314 17.314 0 0 1 541.417 70.509 A 13.859 13.859 0 0 1 538.5 67.35 A 13.753 13.753 0 0 1 536.23 60.406 A 16.945 16.945 0 0 1 536.2 59.4 A 14.846 14.846 0 0 1 537.294 53.679 A 14.216 14.216 0 0 1 538.15 51.95 A 11.8 11.8 0 0 1 541.187 48.552 Q 542.502 47.536 544.196 46.718 A 21.107 21.107 0 0 1 544.55 46.55 A 19.287 19.287 0 0 1 548.316 45.301 Q 550.256 44.857 552.561 44.659 A 46.173 46.173 0 0 1 556.5 44.5 Z M 456.9 44.5 L 475 44.5 L 475 49.8 L 457.1 49.8 Q 451.02 49.8 447.916 51.529 A 7.196 7.196 0 0 0 446.55 52.5 A 8.681 8.681 0 0 0 443.608 58.797 A 10.588 10.588 0 0 0 443.6 59.2 A 9.311 9.311 0 0 0 444.294 62.851 Q 445.145 64.871 447.04 66.353 A 10.908 10.908 0 0 0 447.1 66.4 Q 450.6 69.1 456.9 69.1 A 21.942 21.942 0 0 0 462.142 68.501 A 17.126 17.126 0 0 0 467.25 66.35 Q 471.6 63.6 473.6 58.4 L 475.2 63.3 Q 473.2 68.5 468.25 71.6 A 19.364 19.364 0 0 1 462.271 74.019 Q 459.777 74.594 456.885 74.684 A 34.965 34.965 0 0 1 455.8 74.7 Q 450.017 74.7 445.723 72.827 A 18.899 18.899 0 0 1 445.55 72.75 A 17.314 17.314 0 0 1 441.817 70.509 A 13.859 13.859 0 0 1 438.9 67.35 A 13.753 13.753 0 0 1 436.63 60.406 A 16.945 16.945 0 0 1 436.6 59.4 A 14.846 14.846 0 0 1 437.694 53.679 A 14.216 14.216 0 0 1 438.55 51.95 A 11.8 11.8 0 0 1 441.587 48.552 Q 442.902 47.536 444.596 46.718 A 21.107 21.107 0 0 1 444.95 46.55 A 19.287 19.287 0 0 1 448.716 45.301 Q 450.656 44.857 452.961 44.659 A 46.173 46.173 0 0 1 456.9 44.5 Z M 580.3 74.2 L 573.5 74.2 L 573.5 62.6 L 573.2 60.7 L 573.2 41.3 A 19.203 19.203 0 0 0 572.796 37.237 Q 571.97 33.419 569.45 31 Q 566.38 28.053 560.863 27.519 A 26.609 26.609 0 0 0 558.3 27.4 Q 553.2 27.4 548.6 29.1 A 27.384 27.384 0 0 0 543.987 31.289 A 22.088 22.088 0 0 0 540.8 33.6 L 537.6 28.3 A 26.982 26.982 0 0 1 544.177 24.214 A 32.836 32.836 0 0 1 547.2 23.05 Q 552.8 21.2 559 21.2 A 33.041 33.041 0 0 1 565.193 21.744 Q 568.699 22.414 571.445 23.908 A 16.871 16.871 0 0 1 574.75 26.25 A 15.83 15.83 0 0 1 579.141 33.282 Q 579.974 35.877 580.208 39.039 A 34.664 34.664 0 0 1 580.3 41.6 L 580.3 74.2 Z M 480.7 74.2 L 473.9 74.2 L 473.9 62.6 L 473.6 60.7 L 473.6 41.3 A 19.203 19.203 0 0 0 473.196 37.237 Q 472.37 33.419 469.85 31 Q 466.78 28.053 461.263 27.519 A 26.609 26.609 0 0 0 458.7 27.4 Q 453.6 27.4 449 29.1 A 27.384 27.384 0 0 0 444.387 31.289 A 22.088 22.088 0 0 0 441.2 33.6 L 438 28.3 A 26.982 26.982 0 0 1 444.577 24.214 A 32.836 32.836 0 0 1 447.6 23.05 Q 453.2 21.2 459.4 21.2 A 33.041 33.041 0 0 1 465.593 21.744 Q 469.099 22.414 471.845 23.908 A 16.871 16.871 0 0 1 475.15 26.25 A 15.83 15.83 0 0 1 479.541 33.282 Q 480.374 35.877 480.608 39.039 A 34.664 34.664 0 0 1 480.7 41.6 L 480.7 74.2 Z M 177.5 74.2 L 170.7 74.2 L 170.7 62.6 L 170.4 60.7 L 170.4 41.3 A 19.203 19.203 0 0 0 169.996 37.237 Q 169.17 33.419 166.65 31 Q 163.58 28.053 158.063 27.519 A 26.609 26.609 0 0 0 155.5 27.4 Q 150.4 27.4 145.8 29.1 A 27.384 27.384 0 0 0 141.187 31.289 A 22.088 22.088 0 0 0 138 33.6 L 134.8 28.3 A 26.982 26.982 0 0 1 141.377 24.214 A 32.836 32.836 0 0 1 144.4 23.05 Q 150 21.2 156.2 21.2 A 33.041 33.041 0 0 1 162.393 21.744 Q 165.899 22.414 168.645 23.908 A 16.871 16.871 0 0 1 171.95 26.25 A 15.83 15.83 0 0 1 176.341 33.282 Q 177.174 35.877 177.408 39.039 A 34.664 34.664 0 0 1 177.5 41.6 L 177.5 74.2 Z M 501.2 59.4 L 501.2 10.1 L 508.3 10.1 L 508.3 59 A 14.449 14.449 0 0 0 508.553 61.793 Q 508.875 63.425 509.606 64.691 A 7.586 7.586 0 0 0 510.65 66.1 A 7.58 7.58 0 0 0 514.275 68.219 Q 515.506 68.553 516.975 68.594 A 14.97 14.97 0 0 0 517.4 68.6 A 13.473 13.473 0 0 0 521.081 68.12 A 10.575 10.575 0 0 0 525.2 65.9 L 527.7 71 A 12.822 12.822 0 0 1 523.551 73.495 A 15.202 15.202 0 0 1 522.65 73.8 Q 519.7 74.7 516.6 74.7 A 21.973 21.973 0 0 1 512.11 74.27 Q 509.339 73.691 507.229 72.335 A 12.159 12.159 0 0 1 505.2 70.7 Q 501.454 66.954 501.216 60.314 A 25.527 25.527 0 0 1 501.2 59.4 Z M 276.94 73.502 A 28.357 28.357 0 0 0 285.3 74.7 A 29.168 29.168 0 0 0 288.08 74.57 A 23.565 23.565 0 0 0 297.75 71.55 Q 303.2 68.4 306.4 62.4 Q 309.6 56.4 309.6 47.9 A 44.301 44.301 0 0 0 309.589 46.902 Q 309.511 43.438 308.886 40.42 A 25.399 25.399 0 0 0 306.35 33.35 A 26.952 26.952 0 0 0 305.613 32.083 A 22.203 22.203 0 0 0 297.65 24.3 A 22.948 22.948 0 0 0 292.793 22.236 A 26.309 26.309 0 0 0 285.3 21.2 Q 277.8 21.2 271.85 24.55 Q 265.9 27.9 262.5 33.9 A 25.209 25.209 0 0 0 259.898 40.62 A 31.863 31.863 0 0 0 259.1 47.9 A 33.425 33.425 0 0 0 259.369 52.198 A 26.431 26.431 0 0 0 262.5 61.85 Q 265.9 67.9 271.85 71.3 A 25.018 25.018 0 0 0 276.94 73.502 Z M 312.4 74.2 L 305.6 74.2 L 305.6 58.4 L 306.3 47.8 L 305.3 37.2 L 305.3 0 L 312.4 0 L 312.4 74.2 Z M 90.3 74.2 L 82.9 74.2 L 82.9 4.2 L 90.3 4.2 L 90.3 74.2 Z M 285.8 68.4 A 21.111 21.111 0 0 0 292.045 67.501 A 18.695 18.695 0 0 0 295.85 65.85 Q 300.3 63.3 302.85 58.65 A 20.562 20.562 0 0 0 305.151 51.571 A 26.257 26.257 0 0 0 305.4 47.9 A 25.455 25.455 0 0 0 304.84 42.439 A 19.608 19.608 0 0 0 302.85 37.1 Q 300.3 32.5 295.85 29.95 A 19.38 19.38 0 0 0 287.522 27.463 A 23.484 23.484 0 0 0 285.8 27.4 Q 280.3 27.4 275.9 29.95 Q 271.5 32.5 268.9 37.1 Q 266.3 41.7 266.3 47.9 Q 266.3 54 268.9 58.65 Q 271.5 63.3 275.9 65.85 A 19.039 19.039 0 0 0 284.442 68.36 A 22.881 22.881 0 0 0 285.8 68.4 Z M 750.7 74.2 L 743.6 74.2 L 743.6 21.7 L 750.7 21.7 L 750.7 74.2 Z M 57.7 55.5 L 12.6 55.5 L 14.8 49.5 L 55.5 49.5 L 57.7 55.5 Z M 524.3 27.6 L 491.8 27.6 L 491.8 21.7 L 524.3 21.7 L 524.3 27.6 Z M 745.117 9.701 A 5.319 5.319 0 0 0 747.2 10.1 A 6.595 6.595 0 0 0 747.762 10.077 A 4.855 4.855 0 0 0 750.95 8.6 Q 752.4 7.1 752.4 4.9 A 5.746 5.746 0 0 0 752.397 4.705 A 4.564 4.564 0 0 0 750.9 1.4 A 5.06 5.06 0 0 0 749.167 0.329 A 5.705 5.705 0 0 0 747.2 0 A 6.621 6.621 0 0 0 747.123 0.001 A 5.104 5.104 0 0 0 743.5 1.45 A 5.686 5.686 0 0 0 743.408 1.542 A 4.737 4.737 0 0 0 742 5 A 5.844 5.844 0 0 0 742 5.066 A 4.905 4.905 0 0 0 743.5 8.6 A 5.04 5.04 0 0 0 745.117 9.701 Z" vector-effect="non-scaling-stroke"/></g></svg>