<svg width="3304.2" height="280.801" viewBox="0 0 3304.2 280.801" xmlns="http://www.w3.org/2000/svg"><g id="svgGroup" stroke-linecap="round" fill-rule="evenodd" font-size="9pt" stroke="#ffffff" stroke-width="0.25mm" fill="#ffffff" style="stroke:#ffffff;stroke-width:0.25mm;fill:#ffffff"><path d="M 1434.3 211.801 L 1422 225.901 L 1306.2 106.801 A 321.726 321.726 0 0 1 1299.076 99.034 Q 1293.442 92.672 1289.55 87.451 A 69.457 69.457 0 0 1 1285.028 80.623 Q 1282.965 77.04 1281.667 73.61 A 38.828 38.828 0 0 1 1281 71.701 A 51.43 51.43 0 0 1 1278.615 57.108 A 58.077 58.077 0 0 1 1278.6 55.801 Q 1278.6 42.301 1285.05 32.251 A 41.061 41.061 0 0 1 1299.195 18.89 A 51.125 51.125 0 0 1 1303.5 16.651 A 58.324 58.324 0 0 1 1318.329 12.163 A 80.214 80.214 0 0 1 1331.7 11.101 A 73.828 73.828 0 0 1 1344.252 12.117 A 53.919 53.919 0 0 1 1357.35 16.051 A 41.506 41.506 0 0 1 1368.913 23.699 A 37.707 37.707 0 0 1 1374.45 30.301 A 36.529 36.529 0 0 1 1379.906 44.372 A 49.201 49.201 0 0 1 1380.6 52.801 Q 1380.6 64.201 1375.05 74.101 A 48.987 48.987 0 0 1 1368.912 82.601 Q 1365.598 86.338 1361.24 90.007 A 98.472 98.472 0 0 1 1356.9 93.451 Q 1344.3 102.901 1322.7 114.601 Q 1303.8 125.101 1292.85 133.801 Q 1281.9 142.501 1277.4 150.751 Q 1272.9 159.001 1272.9 168.901 A 33.958 33.958 0 0 0 1275.056 181.13 A 31.384 31.384 0 0 0 1279.35 188.851 A 38.243 38.243 0 0 0 1290.629 198.764 A 49.944 49.944 0 0 0 1297.35 202.051 A 62.829 62.829 0 0 0 1311.858 205.873 A 84.017 84.017 0 0 0 1323.9 206.701 A 86.722 86.722 0 0 0 1345.523 204.099 A 72.607 72.607 0 0 0 1361.4 198.001 A 70.346 70.346 0 0 0 1383.588 179.403 A 88.029 88.029 0 0 0 1389.15 171.601 Q 1400.4 153.901 1405.5 127.201 L 1422.6 132.601 A 161.994 161.994 0 0 1 1416.062 157.013 Q 1411.187 170.619 1404.06 181.555 A 101.112 101.112 0 0 1 1403.1 183.001 A 95.111 95.111 0 0 1 1381.292 206.159 A 87.633 87.633 0 0 1 1368.9 213.901 A 94.963 94.963 0 0 1 1335.262 223.745 A 117.642 117.642 0 0 1 1322.7 224.401 Q 1302.3 224.401 1286.4 217.651 Q 1270.5 210.901 1261.35 198.901 A 44.635 44.635 0 0 1 1252.202 171.497 A 54.941 54.941 0 0 1 1252.2 171.001 A 52.697 52.697 0 0 1 1255.862 151.28 A 50.346 50.346 0 0 1 1258.2 146.251 Q 1263.145 136.978 1273.084 127.91 A 112.023 112.023 0 0 1 1277.55 124.051 Q 1287.51 115.881 1302.397 107.127 A 341.298 341.298 0 0 1 1313.1 101.101 A 508.598 508.598 0 0 0 1324.107 94.817 Q 1335.328 88.21 1342.65 82.951 A 90.283 90.283 0 0 0 1348.977 77.995 Q 1351.877 75.491 1354.083 73.055 A 36.366 36.366 0 0 0 1357.8 68.251 Q 1362.3 61.201 1362.3 53.101 A 27.952 27.952 0 0 0 1360.937 44.183 A 23.246 23.246 0 0 0 1354.35 34.201 Q 1346.4 27.001 1331.7 27.001 Q 1315.8 27.001 1307.1 34.951 A 26.296 26.296 0 0 0 1298.426 54.137 A 35.425 35.425 0 0 0 1298.4 55.501 Q 1298.4 61.801 1300.35 67.501 Q 1301.817 71.79 1305.323 76.758 A 66.684 66.684 0 0 0 1307.85 80.101 A 182.73 182.73 0 0 0 1311.744 84.765 Q 1316.341 90.104 1322.863 97.037 A 591.489 591.489 0 0 0 1323.3 97.501 L 1434.3 211.801 Z M 2294.4 222.601 L 2273.1 222.601 L 2273.1 65.101 L 2293.5 65.101 L 2293.5 107.701 L 2290.2 100.201 Q 2297.4 83.101 2313.45 73.351 A 66.471 66.471 0 0 1 2338.127 64.577 A 87.225 87.225 0 0 1 2351.4 63.601 A 76.908 76.908 0 0 1 2370.762 65.932 A 59.945 59.945 0 0 1 2390.7 75.151 A 49.858 49.858 0 0 1 2408.036 97.566 A 70.567 70.567 0 0 1 2411.7 109.801 L 2403.3 106.501 Q 2410.2 87.301 2427.75 75.451 A 68.545 68.545 0 0 1 2455.915 64.645 A 90.502 90.502 0 0 1 2469.9 63.601 A 84.608 84.608 0 0 1 2486.68 65.189 A 63.702 63.702 0 0 1 2503.35 70.951 Q 2517.6 78.301 2525.55 93.301 A 63.451 63.451 0 0 1 2531.256 109.077 Q 2533.5 118.988 2533.5 131.101 L 2533.5 222.601 L 2512.2 222.601 L 2512.2 133.201 A 83.445 83.445 0 0 0 2511.057 118.907 Q 2509.719 111.226 2506.815 105.151 A 38.17 38.17 0 0 0 2500.35 95.551 A 38.625 38.625 0 0 0 2480.312 84.24 A 58.892 58.892 0 0 0 2466.9 82.801 Q 2450.7 82.801 2438.85 89.551 Q 2427 96.301 2420.55 109.051 A 57.411 57.411 0 0 0 2415.517 124.079 Q 2414.233 130.681 2414.112 138.229 A 98.554 98.554 0 0 0 2414.1 139.801 L 2414.1 222.601 L 2392.8 222.601 L 2392.8 133.201 A 82.426 82.426 0 0 0 2391.643 118.907 Q 2389.073 104.341 2380.8 95.551 A 39.261 39.261 0 0 0 2360.377 84.182 A 59.356 59.356 0 0 0 2347.2 82.801 A 63.364 63.364 0 0 0 2332.33 84.475 A 50.595 50.595 0 0 0 2319.3 89.551 Q 2307.3 96.301 2300.85 109.051 A 57.411 57.411 0 0 0 2295.817 124.079 Q 2294.533 130.681 2294.412 138.229 A 98.554 98.554 0 0 0 2294.4 139.801 L 2294.4 222.601 Z M 380.7 150.301 L 243.6 150.301 L 243.6 134.401 L 369.3 134.401 L 360.9 140.701 A 67.903 67.903 0 0 0 358.702 123.119 A 57.149 57.149 0 0 0 353.55 110.251 Q 346.2 96.901 333.6 89.401 A 53.347 53.347 0 0 0 312.02 82.313 A 67.076 67.076 0 0 0 304.5 81.901 A 60.056 60.056 0 0 0 285.982 84.686 A 53.825 53.825 0 0 0 275.4 89.401 Q 262.5 96.901 255.3 110.401 A 61.095 61.095 0 0 0 248.67 131.822 A 76.867 76.867 0 0 0 248.1 141.301 L 248.1 144.601 Q 248.1 162.601 256.05 176.251 Q 264 189.901 278.25 197.551 A 64.319 64.319 0 0 0 301.364 204.661 A 80.505 80.505 0 0 0 310.8 205.201 A 71.693 71.693 0 0 0 332.11 202.088 A 66.343 66.343 0 0 0 337.65 200.101 Q 350.1 195.001 359.1 184.501 L 371.1 198.301 Q 360.6 210.901 344.85 217.501 A 85.718 85.718 0 0 1 318.318 223.785 A 102.698 102.698 0 0 1 310.2 224.101 A 98.988 98.988 0 0 1 287.184 221.534 A 78.962 78.962 0 0 1 267 213.751 Q 248.4 203.401 237.9 185.251 Q 227.4 167.101 227.4 143.701 A 92.647 92.647 0 0 1 230.154 120.684 A 76.303 76.303 0 0 1 237.45 102.301 Q 247.5 84.301 265.05 73.951 A 75.217 75.217 0 0 1 300.432 63.692 A 90.191 90.191 0 0 1 304.5 63.601 A 83.688 83.688 0 0 1 327.301 66.607 A 71.444 71.444 0 0 1 343.95 73.651 Q 361.2 83.701 371.1 101.851 Q 381 120.001 381 143.701 Q 381 145.201 380.85 146.851 Q 380.7 148.501 380.7 150.301 Z M 1540.5 222.601 L 1517.4 222.601 L 1613.4 12.601 L 1635.3 12.601 L 1731.3 222.601 L 1707.9 222.601 L 1619.7 25.501 L 1628.7 25.501 L 1540.5 222.601 Z M 3180.3 222.601 L 3159 222.601 L 3159 65.101 L 3179.4 65.101 L 3179.4 108.301 L 3176.1 100.201 Q 3183.6 83.101 3200.1 73.351 A 68.999 68.999 0 0 1 3223.826 64.86 A 92.543 92.543 0 0 1 3239.4 63.601 A 85.065 85.065 0 0 1 3256.909 65.325 A 65.881 65.881 0 0 1 3273.15 70.951 Q 3287.7 78.301 3295.95 93.301 A 61.983 61.983 0 0 1 3301.872 109.077 Q 3304.2 118.988 3304.2 131.101 L 3304.2 222.601 L 3282.9 222.601 L 3282.9 133.201 A 79.409 79.409 0 0 0 3281.684 118.825 Q 3279.009 104.317 3270.45 95.551 A 40.655 40.655 0 0 0 3250.962 84.594 Q 3244.431 82.927 3236.68 82.81 A 78.022 78.022 0 0 0 3235.5 82.801 A 70.5 70.5 0 0 0 3220.706 84.284 A 53.812 53.812 0 0 0 3206.25 89.551 Q 3193.8 96.301 3187.05 109.051 A 55.928 55.928 0 0 0 3181.686 124.566 Q 3180.387 131.202 3180.305 138.786 A 94.816 94.816 0 0 0 3180.3 139.801 L 3180.3 222.601 Z M 1760.1 156.601 L 1760.1 65.101 L 1781.4 65.101 L 1781.4 154.201 A 81.286 81.286 0 0 0 1782.586 168.568 Q 1785.242 183.335 1793.85 192.151 A 40.655 40.655 0 0 0 1813.338 203.108 Q 1819.869 204.775 1827.62 204.892 A 78.022 78.022 0 0 0 1828.8 204.901 A 67.901 67.901 0 0 0 1843.2 203.442 A 51.709 51.709 0 0 0 1857.45 198.151 Q 1869.6 191.401 1876.05 178.501 Q 1882.317 165.966 1882.495 148.616 A 99.264 99.264 0 0 0 1882.5 147.601 L 1882.5 65.101 L 1903.8 65.101 L 1903.8 222.601 L 1883.4 222.601 L 1883.4 179.401 L 1886.7 187.201 Q 1879.2 204.601 1863.45 214.351 A 65.007 65.007 0 0 1 1836.872 223.492 A 82.748 82.748 0 0 1 1826.7 224.101 A 90.953 90.953 0 0 1 1808.977 222.453 A 68.469 68.469 0 0 1 1791.6 216.601 Q 1776.6 209.101 1768.35 194.101 A 62.741 62.741 0 0 1 1762.195 177.372 Q 1760.558 170.002 1760.2 161.47 A 116.164 116.164 0 0 1 1760.1 156.601 Z M 1020.3 204.601 L 1029.9 187.801 A 72.183 72.183 0 0 0 1039.709 193.926 Q 1044.65 196.516 1050.499 198.779 A 131.558 131.558 0 0 0 1054.5 200.251 Q 1069.5 205.501 1086 205.501 A 114.135 114.135 0 0 0 1097.064 205.003 Q 1111.13 203.628 1118.4 198.451 A 24.737 24.737 0 0 0 1124.717 192.095 Q 1128.244 186.823 1128.299 179.92 A 27.496 27.496 0 0 0 1128.3 179.701 A 21.986 21.986 0 0 0 1127.583 173.932 A 15.904 15.904 0 0 0 1122.75 166.051 A 31.011 31.011 0 0 0 1115.879 161.469 Q 1112.419 159.746 1108.2 158.551 Q 1099.2 156.001 1088.1 154.201 Q 1077 152.401 1066.05 150.001 A 85.089 85.089 0 0 1 1051.934 145.645 A 73.496 73.496 0 0 1 1046.1 142.951 Q 1037.1 138.301 1031.55 130.201 A 29.304 29.304 0 0 1 1027.521 121.254 Q 1026.475 117.413 1026.148 112.873 A 59.55 59.55 0 0 1 1026 108.601 Q 1026 95.701 1033.2 85.501 Q 1040.4 75.301 1054.35 69.451 Q 1068.3 63.601 1088.4 63.601 Q 1103.7 63.601 1119 67.651 A 109.08 109.08 0 0 1 1130.54 71.362 Q 1136.255 73.58 1140.943 76.282 A 58.895 58.895 0 0 1 1144.2 78.301 L 1134.9 95.401 Q 1124.4 88.201 1112.4 85.051 Q 1100.4 81.901 1088.4 81.901 A 98.273 98.273 0 0 0 1077.309 82.482 Q 1065.846 83.789 1058.877 88.032 A 25.981 25.981 0 0 0 1057.05 89.251 A 26.859 26.859 0 0 0 1051.025 95.195 A 21.367 21.367 0 0 0 1047 108.001 A 23.454 23.454 0 0 0 1047.717 113.966 A 16.474 16.474 0 0 0 1052.55 122.101 A 32.062 32.062 0 0 0 1059.231 126.762 Q 1062.37 128.432 1066.155 129.698 A 55.593 55.593 0 0 0 1067.25 130.051 A 136.647 136.647 0 0 0 1079.07 133.134 A 170.302 170.302 0 0 0 1087.35 134.701 Q 1098.3 136.501 1109.25 139.051 A 103.957 103.957 0 0 1 1123.455 143.408 A 89.216 89.216 0 0 1 1129.35 145.951 Q 1138.5 150.301 1144.05 158.251 Q 1148.917 165.223 1149.516 176.001 A 55.885 55.885 0 0 1 1149.6 179.101 A 41.711 41.711 0 0 1 1147.566 192.335 A 36.346 36.346 0 0 1 1141.95 202.951 Q 1134.3 213.001 1119.75 218.551 Q 1107.189 223.342 1090.045 223.997 A 145.267 145.267 0 0 1 1084.5 224.101 A 122.51 122.51 0 0 1 1053.089 220.15 A 113.163 113.163 0 0 1 1047.6 218.551 A 110.294 110.294 0 0 1 1035.833 214.091 Q 1030.04 211.482 1025.421 208.427 A 53.605 53.605 0 0 1 1020.3 204.601 Z M 486.9 222.601 L 465 222.601 L 395.1 65.101 L 417.3 65.101 L 481.5 211.201 L 471 211.201 L 536.1 65.101 L 557.1 65.101 L 486.9 222.601 Z M 85.5 222.601 L 0 222.601 L 0 12.601 L 85.5 12.601 A 143.251 143.251 0 0 1 116.114 15.733 A 111.598 111.598 0 0 1 144.45 25.951 Q 169.8 39.301 183.9 63.001 A 100.519 100.519 0 0 1 197.319 104.369 A 125.865 125.865 0 0 1 198 117.601 A 115.082 115.082 0 0 1 194.021 148.4 A 96.811 96.811 0 0 1 183.9 172.201 Q 169.8 195.901 144.45 209.251 A 114.699 114.699 0 0 1 107.685 221.014 A 149.846 149.846 0 0 1 85.5 222.601 Z M 652.443 220.643 A 124.272 124.272 0 0 0 683.4 224.401 A 135.534 135.534 0 0 0 692.251 224.116 A 114.8 114.8 0 0 0 727.2 216.451 Q 747.3 208.501 762.15 194.101 Q 777 179.701 785.25 160.201 A 100.7 100.7 0 0 0 789.776 147.016 A 113.191 113.191 0 0 0 793.5 117.601 A 124.438 124.438 0 0 0 793.256 109.767 A 105.615 105.615 0 0 0 785.25 75.001 Q 777 55.501 762.15 41.101 Q 747.3 26.701 727.2 18.751 A 109.057 109.057 0 0 0 713.622 14.39 A 123.745 123.745 0 0 0 683.4 10.801 A 137.15 137.15 0 0 0 672.364 11.238 A 114.408 114.408 0 0 0 639.3 18.751 Q 619.2 26.701 604.35 41.251 Q 589.5 55.801 581.25 75.151 A 99.145 99.145 0 0 0 576.532 88.978 A 112.76 112.76 0 0 0 573 117.601 Q 573 140.701 581.25 160.051 Q 589.5 179.401 604.35 193.951 Q 619.2 208.501 639.45 216.451 A 110.751 110.751 0 0 0 652.443 220.643 Z M 22.2 31.801 L 22.2 203.401 L 84.3 203.401 A 119.681 119.681 0 0 0 108.459 201.074 A 89.905 89.905 0 0 0 132.75 192.451 Q 153.3 181.501 164.7 162.151 A 82.516 82.516 0 0 0 175.515 128.719 A 103.338 103.338 0 0 0 176.1 117.601 Q 176.1 92.101 164.7 72.901 Q 153.3 53.701 132.75 42.751 Q 112.2 31.801 84.3 31.801 L 22.2 31.801 Z M 2639.1 133.501 L 2693.4 133.501 L 2693.4 149.401 L 2639.7 149.401 A 101.356 101.356 0 0 0 2629.172 149.907 Q 2614.688 151.426 2608.05 157.501 A 26.043 26.043 0 0 0 2599.223 176.392 A 31.762 31.762 0 0 0 2599.2 177.601 Q 2599.2 191.101 2609.7 199.201 A 35.423 35.423 0 0 0 2621.164 204.947 Q 2628.912 207.301 2639.1 207.301 Q 2657.1 207.301 2670.15 199.051 A 46.646 46.646 0 0 0 2687.961 178.178 A 58.411 58.411 0 0 0 2689.2 175.201 L 2694 189.901 Q 2688 205.501 2673.15 214.801 Q 2659.388 223.42 2639.055 224.051 A 104.894 104.894 0 0 1 2635.8 224.101 Q 2618.45 224.101 2605.568 218.48 A 56.712 56.712 0 0 1 2605.05 218.251 A 51.941 51.941 0 0 1 2593.851 211.528 A 41.578 41.578 0 0 1 2585.1 202.051 A 41.259 41.259 0 0 1 2578.289 181.219 A 50.834 50.834 0 0 1 2578.2 178.201 A 44.537 44.537 0 0 1 2581.482 161.037 A 42.648 42.648 0 0 1 2584.05 155.851 Q 2589.664 146.206 2602.187 140.153 A 63.321 63.321 0 0 1 2603.25 139.651 Q 2612.884 135.213 2627.284 133.977 A 138.518 138.518 0 0 1 2639.1 133.501 Z M 683.4 204.601 A 97.074 97.074 0 0 0 707.776 201.621 A 86.109 86.109 0 0 0 718.35 198.151 Q 734.4 191.701 746.25 179.851 Q 758.1 168.001 764.7 152.251 A 85.718 85.718 0 0 0 770.984 125.719 A 102.698 102.698 0 0 0 771.3 117.601 Q 771.3 98.701 764.7 82.951 Q 758.1 67.201 746.25 55.351 Q 734.4 43.501 718.35 37.051 Q 702.3 30.601 683.4 30.601 A 97.348 97.348 0 0 0 657.626 33.933 A 87.72 87.72 0 0 0 648.3 37.051 Q 632.1 43.501 620.25 55.351 Q 608.4 67.201 601.65 82.951 A 84.145 84.145 0 0 0 595.223 109.483 A 100.429 100.429 0 0 0 594.9 117.601 A 90.019 90.019 0 0 0 598.54 143.464 A 82.262 82.262 0 0 0 601.65 152.101 Q 608.4 168.001 620.25 179.851 Q 632.1 191.701 648.3 198.151 A 92.115 92.115 0 0 0 677.56 204.443 A 107.229 107.229 0 0 0 683.4 204.601 Z M 2710.5 222.601 L 2690.1 222.601 L 2690.1 187.801 L 2689.2 182.101 L 2689.2 123.901 A 57.609 57.609 0 0 0 2687.989 111.712 Q 2685.509 100.257 2677.95 93.001 A 35.427 35.427 0 0 0 2664.482 85.072 Q 2658.948 83.21 2652.189 82.556 A 79.826 79.826 0 0 0 2644.5 82.201 Q 2629.2 82.201 2615.4 87.301 A 82.151 82.151 0 0 0 2601.562 93.866 A 66.264 66.264 0 0 0 2592 100.801 L 2582.4 84.901 A 80.947 80.947 0 0 1 2602.13 72.641 A 98.507 98.507 0 0 1 2611.2 69.151 Q 2628 63.601 2646.6 63.601 A 99.122 99.122 0 0 1 2665.179 65.232 Q 2675.697 67.241 2683.936 71.725 A 50.612 50.612 0 0 1 2693.85 78.751 A 47.49 47.49 0 0 1 2707.022 99.846 Q 2709.522 107.632 2710.225 117.117 A 103.993 103.993 0 0 1 2710.5 124.801 L 2710.5 222.601 Z M 1966.8 178.201 L 1966.8 30.301 L 1988.1 30.301 L 1988.1 177.001 Q 1988.1 187.288 1992.017 194.074 A 22.757 22.757 0 0 0 1995.15 198.301 A 22.74 22.74 0 0 0 2006.026 204.656 Q 2010.244 205.801 2015.4 205.801 A 40.42 40.42 0 0 0 2026.443 204.359 A 31.725 31.725 0 0 0 2038.8 197.701 L 2046.3 213.001 A 38.466 38.466 0 0 1 2033.853 220.484 A 45.607 45.607 0 0 1 2031.15 221.401 Q 2022.3 224.101 2013 224.101 Q 1990.8 224.101 1978.8 212.101 A 39.09 39.09 0 0 1 1968.78 194.361 Q 1967.109 188.233 1966.848 180.941 A 76.582 76.582 0 0 1 1966.8 178.201 Z M 2772 178.201 L 2772 30.301 L 2793.3 30.301 L 2793.3 177.001 Q 2793.3 187.288 2797.217 194.074 A 22.757 22.757 0 0 0 2800.35 198.301 A 22.74 22.74 0 0 0 2811.226 204.656 Q 2815.444 205.801 2820.6 205.801 A 40.42 40.42 0 0 0 2831.643 204.359 A 31.725 31.725 0 0 0 2844 197.701 L 2851.5 213.001 A 38.466 38.466 0 0 1 2839.053 220.484 A 45.607 45.607 0 0 1 2836.35 221.401 Q 2827.5 224.101 2818.2 224.101 Q 2796 224.101 2784 212.101 A 39.09 39.09 0 0 1 2773.98 194.361 Q 2772.309 188.233 2772.048 180.941 A 76.582 76.582 0 0 1 2772 178.201 Z M 2123.764 220.452 A 86.314 86.314 0 0 0 2149.2 224.101 A 97.945 97.945 0 0 0 2156.999 223.795 A 80.366 80.366 0 0 0 2190.6 213.751 Q 2208.9 203.401 2219.25 185.251 A 76.116 76.116 0 0 0 2226.679 167.082 A 90.401 90.401 0 0 0 2229.6 143.701 A 98.571 98.571 0 0 0 2228.781 130.821 A 77.496 77.496 0 0 0 2219.25 102.001 Q 2208.9 84.001 2190.75 73.801 A 76.751 76.751 0 0 0 2172.581 66.48 A 91.657 91.657 0 0 0 2149.2 63.601 A 97.639 97.639 0 0 0 2139.338 64.089 A 78.731 78.731 0 0 0 2108.1 73.801 Q 2090.1 84.001 2079.6 102.001 Q 2069.1 120.001 2069.1 143.701 Q 2069.1 167.101 2079.6 185.251 Q 2090.1 203.401 2108.25 213.751 A 76.498 76.498 0 0 0 2123.764 220.452 Z M 3009.664 220.452 A 86.314 86.314 0 0 0 3035.1 224.101 A 97.945 97.945 0 0 0 3042.899 223.795 A 80.366 80.366 0 0 0 3076.5 213.751 Q 3094.8 203.401 3105.15 185.251 A 76.116 76.116 0 0 0 3112.579 167.082 A 90.401 90.401 0 0 0 3115.5 143.701 A 98.571 98.571 0 0 0 3114.681 130.821 A 77.496 77.496 0 0 0 3105.15 102.001 Q 3094.8 84.001 3076.65 73.801 A 76.751 76.751 0 0 0 3058.481 66.48 A 91.657 91.657 0 0 0 3035.1 63.601 A 97.639 97.639 0 0 0 3025.238 64.089 A 78.731 78.731 0 0 0 2994 73.801 Q 2976 84.001 2965.5 102.001 Q 2955 120.001 2955 143.701 Q 2955 167.101 2965.5 185.251 Q 2976 203.401 2994.15 213.751 A 76.498 76.498 0 0 0 3009.664 220.452 Z M 895.005 220.031 A 75.905 75.905 0 0 0 920.1 224.101 A 94.744 94.744 0 0 0 927.018 223.852 A 77.938 77.938 0 0 0 960.45 213.901 Q 978.3 203.701 988.5 185.701 A 75.626 75.626 0 0 0 996.307 165.543 A 95.588 95.588 0 0 0 998.7 143.701 A 100.276 100.276 0 0 0 997.893 130.809 A 79.294 79.294 0 0 0 988.5 101.851 Q 978.3 83.701 960.45 73.651 A 75.656 75.656 0 0 0 945.025 67.097 A 86.318 86.318 0 0 0 920.1 63.601 A 88.027 88.027 0 0 0 913.734 63.828 A 72.666 72.666 0 0 0 882.9 72.901 A 64.059 64.059 0 0 0 871.877 80.738 A 69.286 69.286 0 0 0 856.8 100.051 Q 847.2 117.901 847.2 143.701 A 132.903 132.903 0 0 0 847.233 146.697 Q 847.771 170.547 856.95 187.351 A 81.419 81.419 0 0 0 858.354 189.82 A 67.773 67.773 0 0 0 883.2 214.651 A 69.855 69.855 0 0 0 895.005 220.031 Z M 860.1 280.801 L 838.8 280.801 L 838.8 65.101 L 859.2 65.101 L 859.2 112.501 L 857.1 144.001 L 860.1 175.801 L 860.1 280.801 Z M 918.6 205.201 A 63.237 63.237 0 0 0 936.361 202.78 A 54.969 54.969 0 0 0 948.6 197.551 Q 961.8 189.901 969.6 175.951 A 61.16 61.16 0 0 0 976.766 153.784 A 77.954 77.954 0 0 0 977.4 143.701 A 72.658 72.658 0 0 0 975.48 126.651 A 58.025 58.025 0 0 0 969.6 111.601 Q 961.8 97.801 948.6 90.001 A 56.422 56.422 0 0 0 923.762 82.391 A 68.956 68.956 0 0 0 918.6 82.201 A 62.019 62.019 0 0 0 899.406 85.097 A 55.519 55.519 0 0 0 888.45 90.001 Q 875.1 97.801 867.45 111.601 Q 859.8 125.401 859.8 143.701 Q 859.8 162.001 867.45 175.951 Q 875.1 189.901 888.45 197.551 A 58.14 58.14 0 0 0 913.434 205.014 A 70.451 70.451 0 0 0 918.6 205.201 Z M 2149.2 205.201 A 65.154 65.154 0 0 0 2166.268 203.042 A 54.789 54.789 0 0 0 2179.5 197.551 Q 2192.7 189.901 2200.35 175.951 A 61.686 61.686 0 0 0 2207.253 154.714 A 78.77 78.77 0 0 0 2208 143.701 Q 2208 125.101 2200.35 111.301 Q 2192.7 97.501 2179.5 89.851 A 57.088 57.088 0 0 0 2155.169 82.427 A 69.976 69.976 0 0 0 2149.5 82.201 A 63.237 63.237 0 0 0 2131.739 84.621 A 54.969 54.969 0 0 0 2119.5 89.851 Q 2106.3 97.501 2098.5 111.301 A 59.54 59.54 0 0 0 2091.622 131.481 A 78.17 78.17 0 0 0 2090.7 143.701 Q 2090.7 162.001 2098.5 175.951 Q 2106.3 189.901 2119.5 197.551 A 57.117 57.117 0 0 0 2145.127 205.081 A 68.642 68.642 0 0 0 2149.2 205.201 Z M 3035.1 205.201 A 65.154 65.154 0 0 0 3052.168 203.042 A 54.789 54.789 0 0 0 3065.4 197.551 Q 3078.6 189.901 3086.25 175.951 A 61.686 61.686 0 0 0 3093.153 154.714 A 78.77 78.77 0 0 0 3093.9 143.701 Q 3093.9 125.101 3086.25 111.301 Q 3078.6 97.501 3065.4 89.851 A 57.088 57.088 0 0 0 3041.069 82.427 A 69.976 69.976 0 0 0 3035.4 82.201 A 63.237 63.237 0 0 0 3017.639 84.621 A 54.969 54.969 0 0 0 3005.4 89.851 Q 2992.2 97.501 2984.4 111.301 A 59.54 59.54 0 0 0 2977.522 131.481 A 78.17 78.17 0 0 0 2976.6 143.701 Q 2976.6 162.001 2984.4 175.951 Q 2992.2 189.901 3005.4 197.551 A 57.117 57.117 0 0 0 3031.027 205.081 A 68.642 68.642 0 0 0 3035.1 205.201 Z M 2911.5 222.601 L 2890.2 222.601 L 2890.2 65.101 L 2911.5 65.101 L 2911.5 222.601 Z M 1690.5 166.501 L 1555.2 166.501 L 1561.8 148.501 L 1683.9 148.501 L 1690.5 166.501 Z M 2036.1 82.801 L 1938.6 82.801 L 1938.6 65.101 L 2036.1 65.101 L 2036.1 82.801 Z M 2841.3 82.801 L 2743.8 82.801 L 2743.8 65.101 L 2841.3 65.101 L 2841.3 82.801 Z M 2894.752 29.104 A 15.957 15.957 0 0 0 2901 30.301 A 19.786 19.786 0 0 0 2902.685 30.231 A 14.566 14.566 0 0 0 2912.25 25.801 Q 2916.6 21.301 2916.6 14.701 A 17.238 17.238 0 0 0 2916.59 14.115 A 13.693 13.693 0 0 0 2912.1 4.201 A 15.179 15.179 0 0 0 2906.901 0.986 A 17.114 17.114 0 0 0 2901 0.001 A 19.863 19.863 0 0 0 2900.769 0.002 A 15.311 15.311 0 0 0 2889.9 4.351 A 17.058 17.058 0 0 0 2889.623 4.625 A 14.212 14.212 0 0 0 2885.4 15.001 A 17.52 17.52 0 0 0 2885.401 15.197 A 14.715 14.715 0 0 0 2889.9 25.801 A 15.121 15.121 0 0 0 2894.752 29.104 Z" vector-effect="non-scaling-stroke"/></g></svg>