<svg width="1101.4" height="93.6" viewBox="0 0 1101.4 93.6" xmlns="http://www.w3.org/2000/svg"><g id="svgGroup" stroke-linecap="round" fill-rule="evenodd" font-size="9pt" stroke="#ffffff" stroke-width="0.25mm" fill="#ffffff" style="stroke:#ffffff;stroke-width:0.25mm;fill:#ffffff"><path d="M 478.1 70.6 L 474 75.3 L 435.4 35.6 Q 432.869 32.925 431.096 30.746 A 47.882 47.882 0 0 1 429.85 29.15 A 23.152 23.152 0 0 1 428.343 26.874 Q 427.463 25.346 427 23.9 A 17.143 17.143 0 0 1 426.205 19.036 A 19.359 19.359 0 0 1 426.2 18.6 Q 426.2 14.1 428.35 10.75 Q 430.5 7.4 434.5 5.55 A 19.441 19.441 0 0 1 439.443 4.054 A 26.738 26.738 0 0 1 443.9 3.7 A 24.609 24.609 0 0 1 448.084 4.039 A 17.973 17.973 0 0 1 452.45 5.35 A 13.835 13.835 0 0 1 456.304 7.9 A 12.569 12.569 0 0 1 458.15 10.1 A 12.176 12.176 0 0 1 459.969 14.791 A 16.4 16.4 0 0 1 460.2 17.6 Q 460.2 21.4 458.35 24.7 Q 456.836 27.402 453.747 30.002 A 32.824 32.824 0 0 1 452.3 31.15 A 60.053 60.053 0 0 1 449.058 33.405 Q 447.342 34.523 445.302 35.722 A 144.687 144.687 0 0 1 440.9 38.2 A 112.324 112.324 0 0 0 436.882 40.536 Q 433.345 42.697 430.95 44.6 A 29.161 29.161 0 0 0 428.695 46.576 Q 427.635 47.613 426.86 48.63 A 12.793 12.793 0 0 0 425.8 50.25 A 12.416 12.416 0 0 0 424.3 56.249 A 14.484 14.484 0 0 0 424.3 56.3 A 11.319 11.319 0 0 0 425.019 60.377 A 10.461 10.461 0 0 0 426.45 62.95 Q 428.6 65.8 432.45 67.35 A 20.943 20.943 0 0 0 437.286 68.624 A 28.006 28.006 0 0 0 441.3 68.9 Q 448.3 68.9 453.8 66 A 23.449 23.449 0 0 0 461.196 59.801 A 29.343 29.343 0 0 0 463.05 57.2 A 34.529 34.529 0 0 0 466.202 50.781 Q 467.623 46.989 468.5 42.4 L 474.2 44.2 A 53.998 53.998 0 0 1 472.021 52.338 Q 470.288 57.175 467.7 61 Q 463.1 67.8 456.3 71.3 A 31.654 31.654 0 0 1 445.087 74.582 A 39.214 39.214 0 0 1 440.9 74.8 Q 434.1 74.8 428.8 72.55 Q 423.5 70.3 420.45 66.3 Q 417.4 62.3 417.4 57 A 17.566 17.566 0 0 1 418.621 50.427 A 16.782 16.782 0 0 1 419.4 48.75 A 19.56 19.56 0 0 1 421.619 45.488 Q 423.347 43.403 425.85 41.35 A 52.505 52.505 0 0 1 429.602 38.564 Q 431.664 37.16 434.132 35.709 A 113.766 113.766 0 0 1 437.7 33.7 Q 443.712 30.36 447.22 27.885 A 47.926 47.926 0 0 0 447.55 27.65 A 30.094 30.094 0 0 0 449.659 25.998 Q 450.626 25.164 451.361 24.352 A 12.122 12.122 0 0 0 452.6 22.75 Q 454.1 20.4 454.1 17.7 A 9.317 9.317 0 0 0 453.646 14.728 A 7.749 7.749 0 0 0 451.45 11.4 A 8.635 8.635 0 0 0 448.119 9.563 Q 446.273 9 443.9 9 A 17.032 17.032 0 0 0 440.68 9.286 Q 438.833 9.642 437.388 10.442 A 8.835 8.835 0 0 0 435.7 11.65 A 8.765 8.765 0 0 0 432.809 18.046 A 11.808 11.808 0 0 0 432.8 18.5 Q 432.8 20.6 433.45 22.5 A 10.076 10.076 0 0 0 434.141 24.046 Q 434.823 25.299 435.95 26.7 A 60.91 60.91 0 0 0 437.248 28.255 Q 438.78 30.035 440.954 32.346 A 197.488 197.488 0 0 0 441.1 32.5 L 478.1 70.6 Z M 764.8 74.2 L 757.7 74.2 L 757.7 21.7 L 764.5 21.7 L 764.5 35.9 L 763.4 33.4 Q 765.8 27.7 771.15 24.45 A 22.157 22.157 0 0 1 779.376 21.526 A 29.075 29.075 0 0 1 783.8 21.2 A 25.636 25.636 0 0 1 790.254 21.977 A 19.982 19.982 0 0 1 796.9 25.05 A 16.619 16.619 0 0 1 802.679 32.522 A 23.522 23.522 0 0 1 803.9 36.6 L 801.1 35.5 Q 803.4 29.1 809.25 25.15 A 22.848 22.848 0 0 1 818.638 21.548 A 30.167 30.167 0 0 1 823.3 21.2 A 28.203 28.203 0 0 1 828.893 21.73 A 21.234 21.234 0 0 1 834.45 23.65 A 17.109 17.109 0 0 1 841.682 30.79 A 20.784 20.784 0 0 1 841.85 31.1 Q 844.5 36.1 844.5 43.7 L 844.5 74.2 L 837.4 74.2 L 837.4 44.4 Q 837.4 38.805 835.605 35.05 A 12.723 12.723 0 0 0 833.45 31.85 A 12.875 12.875 0 0 0 826.771 28.08 A 19.631 19.631 0 0 0 822.3 27.6 A 21.784 21.784 0 0 0 817.63 28.078 A 16.551 16.551 0 0 0 812.95 29.85 Q 809 32.1 806.85 36.35 A 19.137 19.137 0 0 0 805.172 41.36 Q 804.7 43.788 804.7 46.6 L 804.7 74.2 L 797.6 74.2 L 797.6 44.4 A 27.475 27.475 0 0 0 797.214 39.636 Q 796.358 34.78 793.6 31.85 A 13.087 13.087 0 0 0 786.792 28.061 A 19.785 19.785 0 0 0 782.4 27.6 A 21.121 21.121 0 0 0 777.443 28.158 A 16.865 16.865 0 0 0 773.1 29.85 Q 769.1 32.1 766.95 36.35 A 19.137 19.137 0 0 0 765.272 41.36 Q 764.8 43.788 764.8 46.6 L 764.8 74.2 Z M 126.9 50.1 L 81.2 50.1 L 81.2 44.8 L 123.1 44.8 L 120.3 46.9 A 22.634 22.634 0 0 0 119.567 41.04 A 19.05 19.05 0 0 0 117.85 36.75 Q 115.4 32.3 111.2 29.8 A 17.782 17.782 0 0 0 104.007 27.438 A 22.358 22.358 0 0 0 101.5 27.3 A 20.019 20.019 0 0 0 95.327 28.229 A 17.942 17.942 0 0 0 91.8 29.8 Q 87.5 32.3 85.1 36.8 A 20.365 20.365 0 0 0 82.89 43.941 A 25.622 25.622 0 0 0 82.7 47.1 L 82.7 48.2 Q 82.7 54.2 85.35 58.75 Q 88 63.3 92.75 65.85 A 21.44 21.44 0 0 0 100.455 68.22 A 26.835 26.835 0 0 0 103.6 68.4 A 23.898 23.898 0 0 0 110.703 67.363 A 22.114 22.114 0 0 0 112.55 66.7 Q 116.7 65 119.7 61.5 L 123.7 66.1 Q 120.2 70.3 114.95 72.5 Q 109.7 74.7 103.4 74.7 A 32.996 32.996 0 0 1 95.728 73.845 A 26.321 26.321 0 0 1 89 71.25 Q 82.8 67.8 79.3 61.75 A 26.104 26.104 0 0 1 75.967 51.229 A 32.409 32.409 0 0 1 75.8 47.9 Q 75.8 40.1 79.15 34.1 Q 82.5 28.1 88.35 24.65 A 25.072 25.072 0 0 1 100.144 21.231 A 30.064 30.064 0 0 1 101.5 21.2 A 27.896 27.896 0 0 1 109.1 22.202 A 23.815 23.815 0 0 1 114.65 24.55 Q 120.4 27.9 123.7 33.95 A 26.916 26.916 0 0 1 126.709 43.373 A 34.255 34.255 0 0 1 127 47.9 A 11.163 11.163 0 0 1 126.973 48.662 A 12.957 12.957 0 0 1 126.95 48.95 Q 126.9 49.5 126.9 50.1 Z M 513.5 74.2 L 505.8 74.2 L 537.8 4.2 L 545.1 4.2 L 577.1 74.2 L 569.3 74.2 L 539.9 8.5 L 542.9 8.5 L 513.5 74.2 Z M 1060.1 74.2 L 1053 74.2 L 1053 21.7 L 1059.8 21.7 L 1059.8 36.1 L 1058.7 33.4 Q 1061.2 27.7 1066.7 24.45 A 23 23 0 0 1 1074.609 21.62 A 30.848 30.848 0 0 1 1079.8 21.2 A 28.355 28.355 0 0 1 1085.636 21.775 A 21.96 21.96 0 0 1 1091.05 23.65 Q 1095.9 26.1 1098.65 31.1 A 20.661 20.661 0 0 1 1100.624 36.359 Q 1101.4 39.663 1101.4 43.7 L 1101.4 74.2 L 1094.3 74.2 L 1094.3 44.4 A 26.47 26.47 0 0 0 1093.895 39.608 Q 1093.407 36.964 1092.333 34.891 A 12.661 12.661 0 0 0 1090.15 31.85 Q 1086.109 27.712 1078.893 27.603 A 26.007 26.007 0 0 0 1078.5 27.6 A 23.5 23.5 0 0 0 1073.569 28.095 A 17.937 17.937 0 0 0 1068.75 29.85 Q 1064.6 32.1 1062.35 36.35 A 18.643 18.643 0 0 0 1060.562 41.522 Q 1060.1 43.882 1060.1 46.6 L 1060.1 74.2 Z M 586.7 52.2 L 586.7 21.7 L 593.8 21.7 L 593.8 51.4 A 27.095 27.095 0 0 0 594.195 56.189 Q 595.081 61.112 597.95 64.05 Q 601.991 68.188 609.207 68.297 A 26.007 26.007 0 0 0 609.6 68.3 A 22.634 22.634 0 0 0 614.4 67.814 A 17.236 17.236 0 0 0 619.15 66.05 Q 623.2 63.8 625.35 59.5 A 19.631 19.631 0 0 0 627.059 54.289 Q 627.472 52.067 627.498 49.539 A 33.088 33.088 0 0 0 627.5 49.2 L 627.5 21.7 L 634.6 21.7 L 634.6 74.2 L 627.8 74.2 L 627.8 59.8 L 628.9 62.4 Q 626.4 68.2 621.15 71.45 Q 615.9 74.7 608.9 74.7 A 30.318 30.318 0 0 1 602.992 74.151 A 22.823 22.823 0 0 1 597.2 72.2 Q 592.2 69.7 589.45 64.7 A 20.914 20.914 0 0 1 587.398 59.124 Q 586.853 56.667 586.733 53.823 A 38.721 38.721 0 0 1 586.7 52.2 Z M 340.1 68.2 L 343.3 62.6 A 24.061 24.061 0 0 0 346.57 64.642 Q 348.217 65.505 350.166 66.26 A 43.852 43.852 0 0 0 351.5 66.75 Q 356.5 68.5 362 68.5 A 38.045 38.045 0 0 0 365.688 68.334 Q 369.369 67.975 371.654 66.833 A 8.582 8.582 0 0 0 372.8 66.15 A 8.246 8.246 0 0 0 374.906 64.032 Q 376.081 62.274 376.1 59.973 A 9.165 9.165 0 0 0 376.1 59.9 Q 376.1 57 374.25 55.35 Q 372.4 53.7 369.4 52.85 Q 366.4 52 362.7 51.4 Q 359 50.8 355.35 50 Q 351.7 49.2 348.7 47.65 Q 345.7 46.1 343.85 43.4 Q 342.303 41.142 342.049 37.624 A 19.85 19.85 0 0 1 342 36.2 Q 342 31.9 344.4 28.5 A 14.175 14.175 0 0 1 348.22 24.856 A 19.547 19.547 0 0 1 351.45 23.15 Q 356.1 21.2 362.8 21.2 Q 367.9 21.2 373 22.55 A 36.36 36.36 0 0 1 376.847 23.787 Q 378.752 24.527 380.314 25.427 A 19.632 19.632 0 0 1 381.4 26.1 L 378.3 31.8 Q 374.8 29.4 370.8 28.35 Q 366.8 27.3 362.8 27.3 A 32.758 32.758 0 0 0 359.103 27.494 Q 355.282 27.93 352.959 29.344 A 8.66 8.66 0 0 0 352.35 29.75 A 8.953 8.953 0 0 0 350.342 31.732 A 7.122 7.122 0 0 0 349 36 A 7.818 7.818 0 0 0 349.239 37.989 A 5.491 5.491 0 0 0 350.85 40.7 A 10.687 10.687 0 0 0 353.077 42.254 Q 354.123 42.811 355.385 43.233 A 18.53 18.53 0 0 0 355.75 43.35 A 45.549 45.549 0 0 0 359.69 44.378 A 56.767 56.767 0 0 0 362.45 44.9 Q 366.1 45.5 369.75 46.35 A 34.652 34.652 0 0 1 374.485 47.803 A 29.738 29.738 0 0 1 376.45 48.65 Q 379.5 50.1 381.35 52.75 Q 382.972 55.074 383.172 58.667 A 18.628 18.628 0 0 1 383.2 59.7 A 13.904 13.904 0 0 1 382.522 64.112 A 12.115 12.115 0 0 1 380.65 67.65 A 14.318 14.318 0 0 1 376.872 71.061 A 20.171 20.171 0 0 1 373.25 72.85 A 26.155 26.155 0 0 1 368.434 74.147 Q 366.064 74.562 363.348 74.666 A 48.422 48.422 0 0 1 361.5 74.7 Q 355 74.7 349.2 72.85 A 36.765 36.765 0 0 1 345.278 71.364 Q 343.347 70.494 341.807 69.476 A 17.868 17.868 0 0 1 340.1 68.2 Z M 162.3 74.2 L 155 74.2 L 131.7 21.7 L 139.1 21.7 L 160.5 70.4 L 157 70.4 L 178.7 21.7 L 185.7 21.7 L 162.3 74.2 Z M 28.5 74.2 L 0 74.2 L 0 4.2 L 28.5 4.2 A 47.75 47.75 0 0 1 38.705 5.244 A 37.199 37.199 0 0 1 48.15 8.65 Q 56.6 13.1 61.3 21 A 33.506 33.506 0 0 1 65.773 34.79 A 41.955 41.955 0 0 1 66 39.2 A 38.361 38.361 0 0 1 64.674 49.467 A 32.27 32.27 0 0 1 61.3 57.4 Q 56.6 65.3 48.15 69.75 A 38.233 38.233 0 0 1 35.895 73.671 A 49.949 49.949 0 0 1 28.5 74.2 Z M 217.481 73.548 A 41.424 41.424 0 0 0 227.8 74.8 A 45.178 45.178 0 0 0 230.75 74.705 A 38.267 38.267 0 0 0 242.4 72.15 Q 249.1 69.5 254.05 64.7 Q 259 59.9 261.75 53.4 A 33.567 33.567 0 0 0 263.259 49.005 A 37.73 37.73 0 0 0 264.5 39.2 A 41.479 41.479 0 0 0 264.419 36.589 A 35.205 35.205 0 0 0 261.75 25 Q 259 18.5 254.05 13.7 Q 249.1 8.9 242.4 6.25 A 36.352 36.352 0 0 0 237.874 4.797 A 41.248 41.248 0 0 0 227.8 3.6 A 45.717 45.717 0 0 0 224.121 3.746 A 38.136 38.136 0 0 0 213.1 6.25 Q 206.4 8.9 201.45 13.75 Q 196.5 18.6 193.75 25.05 A 33.048 33.048 0 0 0 192.177 29.659 A 37.587 37.587 0 0 0 191 39.2 A 41.244 41.244 0 0 0 191.099 42.073 A 34.704 34.704 0 0 0 193.75 53.35 Q 196.5 59.8 201.45 64.65 Q 206.4 69.5 213.15 72.15 A 36.917 36.917 0 0 0 217.481 73.548 Z M 7.4 10.6 L 7.4 67.8 L 28.1 67.8 A 39.894 39.894 0 0 0 36.153 67.025 A 29.968 29.968 0 0 0 44.25 64.15 Q 51.1 60.5 54.9 54.05 A 27.505 27.505 0 0 0 58.505 42.906 A 34.446 34.446 0 0 0 58.7 39.2 Q 58.7 30.7 54.9 24.3 Q 51.1 17.9 44.25 14.25 A 30.453 30.453 0 0 0 34.992 11.157 A 40.893 40.893 0 0 0 28.1 10.6 L 7.4 10.6 Z M 879.7 44.5 L 897.8 44.5 L 897.8 49.8 L 879.9 49.8 Q 873.82 49.8 870.716 51.529 A 7.196 7.196 0 0 0 869.35 52.5 A 8.681 8.681 0 0 0 866.408 58.797 A 10.588 10.588 0 0 0 866.4 59.2 A 9.311 9.311 0 0 0 867.094 62.851 Q 867.945 64.871 869.84 66.353 A 10.908 10.908 0 0 0 869.9 66.4 Q 873.4 69.1 879.7 69.1 A 21.942 21.942 0 0 0 884.942 68.501 A 17.126 17.126 0 0 0 890.05 66.35 Q 894.4 63.6 896.4 58.4 L 898 63.3 Q 896 68.5 891.05 71.6 A 19.364 19.364 0 0 1 885.071 74.019 Q 882.577 74.594 879.685 74.684 A 34.965 34.965 0 0 1 878.6 74.7 Q 872.817 74.7 868.523 72.827 A 18.899 18.899 0 0 1 868.35 72.75 A 17.314 17.314 0 0 1 864.617 70.509 A 13.859 13.859 0 0 1 861.7 67.35 A 13.753 13.753 0 0 1 859.43 60.406 A 16.945 16.945 0 0 1 859.4 59.4 A 14.846 14.846 0 0 1 860.494 53.679 A 14.216 14.216 0 0 1 861.35 51.95 A 11.8 11.8 0 0 1 864.387 48.552 Q 865.702 47.536 867.396 46.718 A 21.107 21.107 0 0 1 867.75 46.55 A 19.287 19.287 0 0 1 871.516 45.301 Q 873.456 44.857 875.761 44.659 A 46.173 46.173 0 0 1 879.7 44.5 Z M 227.8 68.2 A 32.358 32.358 0 0 0 235.925 67.207 A 28.703 28.703 0 0 0 239.45 66.05 Q 244.8 63.9 248.75 59.95 Q 252.7 56 254.9 50.75 Q 257.1 45.5 257.1 39.2 A 31.445 31.445 0 0 0 256.241 31.735 A 27.227 27.227 0 0 0 254.9 27.65 Q 252.7 22.4 248.75 18.45 Q 244.8 14.5 239.45 12.35 A 30.144 30.144 0 0 0 230.129 10.276 A 35.441 35.441 0 0 0 227.8 10.2 Q 221.5 10.2 216.1 12.35 Q 210.7 14.5 206.75 18.45 Q 202.8 22.4 200.55 27.65 A 28.048 28.048 0 0 0 198.408 36.494 A 33.476 33.476 0 0 0 198.3 39.2 A 30.006 30.006 0 0 0 199.513 47.821 A 27.421 27.421 0 0 0 200.55 50.7 Q 202.8 56 206.75 59.95 Q 210.7 63.9 216.1 66.05 A 30.705 30.705 0 0 0 225.853 68.148 A 35.743 35.743 0 0 0 227.8 68.2 Z M 903.5 74.2 L 896.7 74.2 L 896.7 62.6 L 896.4 60.7 L 896.4 41.3 A 19.203 19.203 0 0 0 895.996 37.237 Q 895.17 33.419 892.65 31 Q 889.58 28.053 884.063 27.519 A 26.609 26.609 0 0 0 881.5 27.4 Q 876.4 27.4 871.8 29.1 A 27.384 27.384 0 0 0 867.187 31.289 A 22.088 22.088 0 0 0 864 33.6 L 860.8 28.3 A 26.982 26.982 0 0 1 867.377 24.214 A 32.836 32.836 0 0 1 870.4 23.05 Q 876 21.2 882.2 21.2 A 33.041 33.041 0 0 1 888.393 21.744 Q 891.899 22.414 894.645 23.908 A 16.871 16.871 0 0 1 897.95 26.25 A 15.83 15.83 0 0 1 902.341 33.282 Q 903.174 35.877 903.408 39.039 A 34.664 34.664 0 0 1 903.5 41.6 L 903.5 74.2 Z M 655.6 59.4 L 655.6 10.1 L 662.7 10.1 L 662.7 59 A 14.449 14.449 0 0 0 662.953 61.793 Q 663.275 63.425 664.006 64.691 A 7.586 7.586 0 0 0 665.05 66.1 A 7.58 7.58 0 0 0 668.675 68.219 Q 669.906 68.553 671.375 68.594 A 14.97 14.97 0 0 0 671.8 68.6 A 13.473 13.473 0 0 0 675.481 68.12 A 10.575 10.575 0 0 0 679.6 65.9 L 682.1 71 A 12.822 12.822 0 0 1 677.951 73.495 A 15.202 15.202 0 0 1 677.05 73.8 Q 674.1 74.7 671 74.7 A 21.973 21.973 0 0 1 666.51 74.27 Q 663.739 73.691 661.629 72.335 A 12.159 12.159 0 0 1 659.6 70.7 Q 655.854 66.954 655.616 60.314 A 25.527 25.527 0 0 1 655.6 59.4 Z M 924 59.4 L 924 10.1 L 931.1 10.1 L 931.1 59 A 14.449 14.449 0 0 0 931.353 61.793 Q 931.675 63.425 932.406 64.691 A 7.586 7.586 0 0 0 933.45 66.1 A 7.58 7.58 0 0 0 937.075 68.219 Q 938.306 68.553 939.775 68.594 A 14.97 14.97 0 0 0 940.2 68.6 A 13.473 13.473 0 0 0 943.881 68.12 A 10.575 10.575 0 0 0 948 65.9 L 950.5 71 A 12.822 12.822 0 0 1 946.351 73.495 A 15.202 15.202 0 0 1 945.45 73.8 Q 942.5 74.7 939.4 74.7 A 21.973 21.973 0 0 1 934.91 74.27 Q 932.139 73.691 930.029 72.335 A 12.159 12.159 0 0 1 928 70.7 Q 924.254 66.954 924.016 60.314 A 25.527 25.527 0 0 1 924 59.4 Z M 707.921 73.484 A 28.771 28.771 0 0 0 716.4 74.7 A 32.648 32.648 0 0 0 719 74.598 A 26.789 26.789 0 0 0 730.2 71.25 Q 736.3 67.8 739.75 61.75 A 25.372 25.372 0 0 0 742.226 55.694 A 30.134 30.134 0 0 0 743.2 47.9 A 32.857 32.857 0 0 0 742.927 43.607 A 25.832 25.832 0 0 0 739.75 34 Q 736.3 28 730.25 24.6 A 25.584 25.584 0 0 0 724.194 22.16 A 30.552 30.552 0 0 0 716.4 21.2 A 32.546 32.546 0 0 0 713.113 21.363 A 26.244 26.244 0 0 0 702.7 24.6 Q 696.7 28 693.2 34 Q 689.7 40 689.7 47.9 A 32.409 32.409 0 0 0 689.867 51.229 A 26.104 26.104 0 0 0 693.2 61.75 Q 696.7 67.8 702.75 71.25 A 25.499 25.499 0 0 0 707.921 73.484 Z M 1003.221 73.484 A 28.771 28.771 0 0 0 1011.7 74.7 A 32.648 32.648 0 0 0 1014.3 74.598 A 26.789 26.789 0 0 0 1025.5 71.25 Q 1031.6 67.8 1035.05 61.75 A 25.372 25.372 0 0 0 1037.526 55.694 A 30.134 30.134 0 0 0 1038.5 47.9 A 32.857 32.857 0 0 0 1038.227 43.607 A 25.832 25.832 0 0 0 1035.05 34 Q 1031.6 28 1025.55 24.6 A 25.584 25.584 0 0 0 1019.494 22.16 A 30.552 30.552 0 0 0 1011.7 21.2 A 32.546 32.546 0 0 0 1008.413 21.363 A 26.244 26.244 0 0 0 998 24.6 Q 992 28 988.5 34 Q 985 40 985 47.9 A 32.409 32.409 0 0 0 985.167 51.229 A 26.104 26.104 0 0 0 988.5 61.75 Q 992 67.8 998.05 71.25 A 25.499 25.499 0 0 0 1003.221 73.484 Z M 298.335 73.344 A 25.302 25.302 0 0 0 306.7 74.7 Q 314.2 74.7 320.15 71.3 Q 326.1 67.9 329.5 61.9 A 25.209 25.209 0 0 0 332.102 55.181 A 31.863 31.863 0 0 0 332.9 47.9 A 33.425 33.425 0 0 0 332.631 43.603 A 26.431 26.431 0 0 0 329.5 33.95 Q 326.1 27.9 320.15 24.55 A 25.219 25.219 0 0 0 315.008 22.366 A 28.773 28.773 0 0 0 306.7 21.2 A 29.342 29.342 0 0 0 304.578 21.276 A 24.222 24.222 0 0 0 294.3 24.3 A 21.353 21.353 0 0 0 290.626 26.913 A 23.095 23.095 0 0 0 285.6 33.35 A 22.82 22.82 0 0 0 285.034 34.477 Q 282.4 40.098 282.4 47.9 A 44.301 44.301 0 0 0 282.411 48.899 Q 282.489 52.363 283.114 55.381 A 25.399 25.399 0 0 0 285.65 62.45 A 27.14 27.14 0 0 0 286.118 63.273 A 22.591 22.591 0 0 0 294.4 71.55 A 23.285 23.285 0 0 0 298.335 73.344 Z M 286.7 93.6 L 279.6 93.6 L 279.6 21.7 L 286.4 21.7 L 286.4 37.5 L 285.7 48 L 286.7 58.6 L 286.7 93.6 Z M 306.2 68.4 A 21.079 21.079 0 0 0 312.12 67.593 A 18.323 18.323 0 0 0 316.2 65.85 Q 320.6 63.3 323.2 58.65 Q 325.8 54 325.8 47.9 A 24.219 24.219 0 0 0 325.16 42.217 A 19.342 19.342 0 0 0 323.2 37.2 Q 320.6 32.6 316.2 30 Q 311.8 27.4 306.2 27.4 A 20.673 20.673 0 0 0 299.802 28.366 A 18.506 18.506 0 0 0 296.15 30 Q 291.7 32.6 289.15 37.2 A 20.196 20.196 0 0 0 286.855 44.19 A 26.118 26.118 0 0 0 286.6 47.9 Q 286.6 54 289.15 58.65 Q 291.7 63.3 296.15 65.85 A 19.38 19.38 0 0 0 304.478 68.338 A 23.484 23.484 0 0 0 306.2 68.4 Z M 716.4 68.4 A 21.718 21.718 0 0 0 722.089 67.681 A 18.263 18.263 0 0 0 726.5 65.85 Q 730.9 63.3 733.45 58.65 A 20.562 20.562 0 0 0 735.751 51.571 A 26.257 26.257 0 0 0 736 47.9 A 25.455 25.455 0 0 0 735.44 42.439 A 19.608 19.608 0 0 0 733.45 37.1 Q 730.9 32.5 726.5 29.95 A 19.029 19.029 0 0 0 718.39 27.476 A 23.325 23.325 0 0 0 716.5 27.4 A 21.079 21.079 0 0 0 710.58 28.207 A 18.323 18.323 0 0 0 706.5 29.95 Q 702.1 32.5 699.5 37.1 Q 696.9 41.7 696.9 47.9 Q 696.9 54 699.5 58.65 Q 702.1 63.3 706.5 65.85 A 19.039 19.039 0 0 0 715.042 68.36 A 22.881 22.881 0 0 0 716.4 68.4 Z M 1011.7 68.4 A 21.718 21.718 0 0 0 1017.389 67.681 A 18.263 18.263 0 0 0 1021.8 65.85 Q 1026.2 63.3 1028.75 58.65 A 20.562 20.562 0 0 0 1031.051 51.571 A 26.257 26.257 0 0 0 1031.3 47.9 A 25.455 25.455 0 0 0 1030.74 42.439 A 19.608 19.608 0 0 0 1028.75 37.1 Q 1026.2 32.5 1021.8 29.95 A 19.029 19.029 0 0 0 1013.69 27.476 A 23.325 23.325 0 0 0 1011.8 27.4 A 21.079 21.079 0 0 0 1005.88 28.207 A 18.323 18.323 0 0 0 1001.8 29.95 Q 997.4 32.5 994.8 37.1 Q 992.2 41.7 992.2 47.9 Q 992.2 54 994.8 58.65 Q 997.4 63.3 1001.8 65.85 A 19.039 19.039 0 0 0 1010.342 68.36 A 22.881 22.881 0 0 0 1011.7 68.4 Z M 970.5 74.2 L 963.4 74.2 L 963.4 21.7 L 970.5 21.7 L 970.5 74.2 Z M 563.5 55.5 L 518.4 55.5 L 520.6 49.5 L 561.3 49.5 L 563.5 55.5 Z M 678.7 27.6 L 646.2 27.6 L 646.2 21.7 L 678.7 21.7 L 678.7 27.6 Z M 947.1 27.6 L 914.6 27.6 L 914.6 21.7 L 947.1 21.7 L 947.1 27.6 Z M 964.917 9.701 A 5.319 5.319 0 0 0 967 10.1 A 6.595 6.595 0 0 0 967.562 10.077 A 4.855 4.855 0 0 0 970.75 8.6 Q 972.2 7.1 972.2 4.9 A 5.746 5.746 0 0 0 972.197 4.705 A 4.564 4.564 0 0 0 970.7 1.4 A 5.06 5.06 0 0 0 968.967 0.329 A 5.705 5.705 0 0 0 967 0 A 6.621 6.621 0 0 0 966.923 0.001 A 5.104 5.104 0 0 0 963.3 1.45 A 5.686 5.686 0 0 0 963.208 1.542 A 4.737 4.737 0 0 0 961.8 5 A 5.844 5.844 0 0 0 961.8 5.066 A 4.905 4.905 0 0 0 963.3 8.6 A 5.04 5.04 0 0 0 964.917 9.701 Z" vector-effect="non-scaling-stroke"/></g></svg>