<?xml version="1.0" standalone="no"?>
<!DOCTYPE svg PUBLIC "-//W3C//DTD SVG 20010904//EN"
 "http://www.w3.org/TR/2001/REC-SVG-20010904/DTD/svg10.dtd">
<svg version="1.0" xmlns="http://www.w3.org/2000/svg"
 width="400.000000pt" height="400.000000pt" viewBox="0 0 400.000000 400.000000"
 preserveAspectRatio="xMidYMid meet">

<g transform="translate(0.000000,400.000000) scale(0.100000,-0.100000)"
fill="#000000" stroke="none">
<path d="M1760 3985 c-356 -44 -698 -184 -985 -404 -85 -64 -256 -232 -328
-321 -489 -606 -584 -1441 -243 -2135 110 -225 228 -387 407 -560 168 -162
302 -257 514 -361 679 -334 1490 -251 2100 215 85 64 256 232 328 321 285 353
447 810 447 1260 0 450 -162 907 -447 1260 -72 89 -243 257 -328 321 -419 321
-952 467 -1465 404z m405 -490 c173 -23 286 -56 440 -130 296 -142 540 -382
684 -673 105 -212 150 -411 151 -663 0 -309 -89 -584 -276 -854 -65 -94 -203
-230 -349 -346 -151 -120 -159 -124 -108 -64 135 163 205 359 205 575 0 186
-47 347 -141 490 -130 197 -285 313 -516 387 -84 26 -101 28 -250 27 -145 0
-169 -3 -249 -27 -295 -91 -518 -303 -615 -586 -77 -224 -58 -491 50 -704 l22
-42 -23 20 c-36 32 -117 163 -150 241 -116 279 -110 602 17 873 78 165 184
293 342 410 281 208 649 261 991 143 245 -85 476 -291 596 -530 98 -198 129
-402 98 -647 l-5 -40 22 50 c35 83 68 251 75 380 15 309 -82 607 -280 856
-195 247 -466 411 -766 464 -290 51 -554 14 -812 -115 -209 -105 -407 -288
-523 -483 -137 -229 -193 -452 -182 -721 9 -207 37 -324 128 -516 51 -110 39
-104 -35 16 -82 133 -148 307 -183 480 -24 122 -24 402 0 533 71 375 273 696
588 930 145 107 316 187 504 235 184 47 353 57 550 31z"/>
</g>
</svg>
