<svg width="854.701" height="94.101" viewBox="0 0 854.701 94.101" xmlns="http://www.w3.org/2000/svg"><g id="svgGroup" stroke-linecap="round" fill-rule="evenodd" font-size="9pt" stroke="#ffffff" stroke-width="0.25mm" fill="#ffffff" style="stroke:#ffffff;stroke-width:0.25mm;fill:#ffffff"><path d="M 364.7 74.2 L 357.6 74.2 L 357.6 4.2 L 363.7 4.2 L 395.7 58.8 L 392.5 58.8 L 424.2 4.2 L 430.3 4.2 L 430.3 74.2 L 423.2 74.2 L 423.2 15.3 L 424.9 15.3 L 395.7 65.3 L 392.2 65.3 L 362.8 15.3 L 364.7 15.3 L 364.7 74.2 Z M 656.3 50.1 L 610.6 50.1 L 610.6 44.8 L 652.5 44.8 L 649.7 46.9 A 22.634 22.634 0 0 0 648.967 41.04 A 19.05 19.05 0 0 0 647.25 36.75 Q 644.8 32.3 640.6 29.8 A 17.782 17.782 0 0 0 633.407 27.438 A 22.358 22.358 0 0 0 630.9 27.3 A 20.019 20.019 0 0 0 624.727 28.229 A 17.942 17.942 0 0 0 621.2 29.8 Q 616.9 32.3 614.5 36.8 A 20.365 20.365 0 0 0 612.29 43.941 A 25.622 25.622 0 0 0 612.1 47.1 L 612.1 48.2 Q 612.1 54.2 614.75 58.75 Q 617.4 63.3 622.15 65.85 A 21.44 21.44 0 0 0 629.855 68.22 A 26.835 26.835 0 0 0 633 68.4 A 23.898 23.898 0 0 0 640.103 67.363 A 22.114 22.114 0 0 0 641.95 66.7 Q 646.1 65 649.1 61.5 L 653.1 66.1 Q 649.6 70.3 644.35 72.5 Q 639.1 74.7 632.8 74.7 A 32.996 32.996 0 0 1 625.128 73.845 A 26.321 26.321 0 0 1 618.4 71.25 Q 612.2 67.8 608.7 61.75 A 26.104 26.104 0 0 1 605.367 51.229 A 32.409 32.409 0 0 1 605.2 47.9 Q 605.2 40.1 608.55 34.1 Q 611.9 28.1 617.75 24.65 A 25.072 25.072 0 0 1 629.544 21.231 A 30.064 30.064 0 0 1 630.9 21.2 A 27.896 27.896 0 0 1 638.5 22.202 A 23.815 23.815 0 0 1 644.05 24.55 Q 649.8 27.9 653.1 33.95 A 26.916 26.916 0 0 1 656.109 43.373 A 34.255 34.255 0 0 1 656.4 47.9 A 11.163 11.163 0 0 1 656.373 48.662 A 12.957 12.957 0 0 1 656.35 48.95 Q 656.3 49.5 656.3 50.1 Z M 745.5 74.2 L 738.4 74.2 L 738.4 21.7 L 745.2 21.7 L 745.2 36.1 L 744.1 33.4 Q 746.6 27.7 752.1 24.45 A 23 23 0 0 1 760.009 21.62 A 30.848 30.848 0 0 1 765.2 21.2 A 28.355 28.355 0 0 1 771.036 21.775 A 21.96 21.96 0 0 1 776.45 23.65 Q 781.3 26.1 784.05 31.1 A 20.661 20.661 0 0 1 786.024 36.359 Q 786.8 39.663 786.8 43.7 L 786.8 74.2 L 779.7 74.2 L 779.7 44.4 A 26.47 26.47 0 0 0 779.295 39.608 Q 778.807 36.964 777.733 34.891 A 12.661 12.661 0 0 0 775.55 31.85 Q 771.509 27.712 764.293 27.603 A 26.007 26.007 0 0 0 763.9 27.6 A 23.5 23.5 0 0 0 758.969 28.095 A 17.937 17.937 0 0 0 754.15 29.85 Q 750 32.1 747.75 36.35 A 18.643 18.643 0 0 0 745.962 41.522 Q 745.5 43.882 745.5 46.6 L 745.5 74.2 Z M 28.5 74.2 L 0 74.2 L 0 4.2 L 28.5 4.2 A 47.75 47.75 0 0 1 38.705 5.244 A 37.199 37.199 0 0 1 48.15 8.65 Q 56.6 13.1 61.3 21 A 33.506 33.506 0 0 1 65.773 34.79 A 41.955 41.955 0 0 1 66 39.2 A 38.361 38.361 0 0 1 64.674 49.467 A 32.27 32.27 0 0 1 61.3 57.4 Q 56.6 65.3 48.15 69.75 A 38.233 38.233 0 0 1 35.895 73.671 A 49.949 49.949 0 0 1 28.5 74.2 Z M 803.9 86 L 807.5 80.6 A 25.166 25.166 0 0 0 812.809 84.198 A 32.211 32.211 0 0 0 816.65 85.85 A 34.013 34.013 0 0 0 828.152 87.8 A 37.828 37.828 0 0 0 828.2 87.8 Q 834.395 87.8 838.556 86.016 A 13.868 13.868 0 0 0 842.9 83.15 Q 847.6 78.5 847.6 68.7 L 847.6 55.6 L 848.6 46.6 L 847.9 37.6 L 847.9 21.7 L 854.7 21.7 L 854.7 67.8 A 43.992 43.992 0 0 1 854.129 75.147 Q 853.473 79.014 852.061 82.057 A 18.578 18.578 0 0 1 848.05 87.75 Q 842.561 92.992 832.745 93.907 A 46.85 46.85 0 0 1 828.4 94.1 A 45.238 45.238 0 0 1 814.6 92 A 32.798 32.798 0 0 1 809.304 89.818 A 23.851 23.851 0 0 1 803.9 86 Z M 105.9 86 L 109.5 80.6 A 25.166 25.166 0 0 0 114.809 84.198 A 32.211 32.211 0 0 0 118.65 85.85 A 34.013 34.013 0 0 0 130.152 87.8 A 37.828 37.828 0 0 0 130.2 87.8 Q 136.395 87.8 140.556 86.016 A 13.868 13.868 0 0 0 144.9 83.15 Q 149.6 78.5 149.6 68.7 L 149.6 55.6 L 150.6 46.6 L 149.9 37.6 L 149.9 21.7 L 156.7 21.7 L 156.7 67.8 A 43.992 43.992 0 0 1 156.129 75.147 Q 155.473 79.014 154.061 82.057 A 18.578 18.578 0 0 1 150.05 87.75 Q 144.561 92.992 134.745 93.907 A 46.85 46.85 0 0 1 130.4 94.1 A 45.238 45.238 0 0 1 116.6 92 A 32.798 32.798 0 0 1 111.304 89.818 A 23.851 23.851 0 0 1 105.9 86 Z M 7.4 10.6 L 7.4 67.8 L 28.1 67.8 A 39.894 39.894 0 0 0 36.153 67.025 A 29.968 29.968 0 0 0 44.25 64.15 Q 51.1 60.5 54.9 54.05 A 27.505 27.505 0 0 0 58.505 42.906 A 34.446 34.446 0 0 0 58.7 39.2 Q 58.7 30.7 54.9 24.3 Q 51.1 17.9 44.25 14.25 A 30.453 30.453 0 0 0 34.992 11.157 A 40.893 40.893 0 0 0 28.1 10.6 L 7.4 10.6 Z M 467.5 44.5 L 485.6 44.5 L 485.6 49.8 L 467.7 49.8 Q 461.62 49.8 458.516 51.529 A 7.196 7.196 0 0 0 457.15 52.5 A 8.681 8.681 0 0 0 454.208 58.797 A 10.588 10.588 0 0 0 454.2 59.2 A 9.311 9.311 0 0 0 454.894 62.851 Q 455.745 64.871 457.64 66.353 A 10.908 10.908 0 0 0 457.7 66.4 Q 461.2 69.1 467.5 69.1 A 21.942 21.942 0 0 0 472.742 68.501 A 17.126 17.126 0 0 0 477.85 66.35 Q 482.2 63.6 484.2 58.4 L 485.8 63.3 Q 483.8 68.5 478.85 71.6 A 19.364 19.364 0 0 1 472.871 74.019 Q 470.377 74.594 467.485 74.684 A 34.965 34.965 0 0 1 466.4 74.7 Q 460.617 74.7 456.323 72.827 A 18.899 18.899 0 0 1 456.15 72.75 A 17.314 17.314 0 0 1 452.417 70.509 A 13.859 13.859 0 0 1 449.5 67.35 A 13.753 13.753 0 0 1 447.23 60.406 A 16.945 16.945 0 0 1 447.2 59.4 A 14.846 14.846 0 0 1 448.294 53.679 A 14.216 14.216 0 0 1 449.15 51.95 A 11.8 11.8 0 0 1 452.187 48.552 Q 453.502 47.536 455.196 46.718 A 21.107 21.107 0 0 1 455.55 46.55 A 19.287 19.287 0 0 1 459.316 45.301 Q 461.256 44.857 463.561 44.659 A 46.173 46.173 0 0 1 467.5 44.5 Z M 259.9 44.5 L 278 44.5 L 278 49.8 L 260.1 49.8 Q 254.02 49.8 250.916 51.529 A 7.196 7.196 0 0 0 249.55 52.5 A 8.681 8.681 0 0 0 246.608 58.797 A 10.588 10.588 0 0 0 246.6 59.2 A 9.311 9.311 0 0 0 247.294 62.851 Q 248.145 64.871 250.04 66.353 A 10.908 10.908 0 0 0 250.1 66.4 Q 253.6 69.1 259.9 69.1 A 21.942 21.942 0 0 0 265.142 68.501 A 17.126 17.126 0 0 0 270.25 66.35 Q 274.6 63.6 276.6 58.4 L 278.2 63.3 Q 276.2 68.5 271.25 71.6 A 19.364 19.364 0 0 1 265.271 74.019 Q 262.777 74.594 259.885 74.684 A 34.965 34.965 0 0 1 258.8 74.7 Q 253.017 74.7 248.723 72.827 A 18.899 18.899 0 0 1 248.55 72.75 A 17.314 17.314 0 0 1 244.817 70.509 A 13.859 13.859 0 0 1 241.9 67.35 A 13.753 13.753 0 0 1 239.63 60.406 A 16.945 16.945 0 0 1 239.6 59.4 A 14.846 14.846 0 0 1 240.694 53.679 A 14.216 14.216 0 0 1 241.55 51.95 A 11.8 11.8 0 0 1 244.587 48.552 Q 245.902 47.536 247.596 46.718 A 21.107 21.107 0 0 1 247.95 46.55 A 19.287 19.287 0 0 1 251.716 45.301 Q 253.656 44.857 255.961 44.659 A 46.173 46.173 0 0 1 259.9 44.5 Z M 491.3 74.2 L 484.5 74.2 L 484.5 62.6 L 484.2 60.7 L 484.2 41.3 A 19.203 19.203 0 0 0 483.796 37.237 Q 482.97 33.419 480.45 31 Q 477.38 28.053 471.863 27.519 A 26.609 26.609 0 0 0 469.3 27.4 Q 464.2 27.4 459.6 29.1 A 27.384 27.384 0 0 0 454.987 31.289 A 22.088 22.088 0 0 0 451.8 33.6 L 448.6 28.3 A 26.982 26.982 0 0 1 455.177 24.214 A 32.836 32.836 0 0 1 458.2 23.05 Q 463.8 21.2 470 21.2 A 33.041 33.041 0 0 1 476.193 21.744 Q 479.699 22.414 482.445 23.908 A 16.871 16.871 0 0 1 485.75 26.25 A 15.83 15.83 0 0 1 490.141 33.282 Q 490.974 35.877 491.208 39.039 A 34.664 34.664 0 0 1 491.3 41.6 L 491.3 74.2 Z M 283.7 74.2 L 276.9 74.2 L 276.9 62.6 L 276.6 60.7 L 276.6 41.3 A 19.203 19.203 0 0 0 276.196 37.237 Q 275.37 33.419 272.85 31 Q 269.78 28.053 264.263 27.519 A 26.609 26.609 0 0 0 261.7 27.4 Q 256.6 27.4 252 29.1 A 27.384 27.384 0 0 0 247.387 31.289 A 22.088 22.088 0 0 0 244.2 33.6 L 241 28.3 A 26.982 26.982 0 0 1 247.577 24.214 A 32.836 32.836 0 0 1 250.6 23.05 Q 256.2 21.2 262.4 21.2 A 33.041 33.041 0 0 1 268.593 21.744 Q 272.099 22.414 274.845 23.908 A 16.871 16.871 0 0 1 278.15 26.25 A 15.83 15.83 0 0 1 282.541 33.282 Q 283.374 35.877 283.608 39.039 A 34.664 34.664 0 0 1 283.7 41.6 L 283.7 74.2 Z M 517.7 74.2 L 510.6 74.2 L 510.6 21.7 L 517.4 21.7 L 517.4 36 L 516.7 33.5 A 18.054 18.054 0 0 1 520.37 27.38 A 17.131 17.131 0 0 1 524.1 24.35 A 20.877 20.877 0 0 1 530.535 21.847 Q 533.139 21.281 536.136 21.21 A 36.624 36.624 0 0 1 537 21.2 L 537 28.1 Q 536.6 28.1 536.2 28.05 Q 535.8 28 535.4 28 A 21.915 21.915 0 0 0 529.913 28.649 A 15.224 15.224 0 0 0 522.4 33.05 A 16.429 16.429 0 0 0 518.733 39.615 Q 517.7 43.041 517.7 47.4 L 517.7 74.2 Z M 672.1 59.4 L 672.1 10.1 L 679.2 10.1 L 679.2 59 A 14.449 14.449 0 0 0 679.453 61.793 Q 679.775 63.425 680.506 64.691 A 7.586 7.586 0 0 0 681.55 66.1 A 7.58 7.58 0 0 0 685.175 68.219 Q 686.406 68.553 687.875 68.594 A 14.97 14.97 0 0 0 688.3 68.6 A 13.473 13.473 0 0 0 691.981 68.12 A 10.575 10.575 0 0 0 696.1 65.9 L 698.6 71 A 12.822 12.822 0 0 1 694.451 73.495 A 15.202 15.202 0 0 1 693.55 73.8 Q 690.6 74.7 687.5 74.7 A 21.973 21.973 0 0 1 683.01 74.27 Q 680.239 73.691 678.129 72.335 A 12.159 12.159 0 0 1 676.1 70.7 Q 672.354 66.954 672.116 60.314 A 25.527 25.527 0 0 1 672.1 59.4 Z M 204.6 59.4 L 204.6 10.1 L 211.7 10.1 L 211.7 59 A 14.449 14.449 0 0 0 211.953 61.793 Q 212.275 63.425 213.006 64.691 A 7.586 7.586 0 0 0 214.05 66.1 A 7.58 7.58 0 0 0 217.675 68.219 Q 218.906 68.553 220.375 68.594 A 14.97 14.97 0 0 0 220.8 68.6 A 13.473 13.473 0 0 0 224.481 68.12 A 10.575 10.575 0 0 0 228.6 65.9 L 231.1 71 A 12.822 12.822 0 0 1 226.951 73.495 A 15.202 15.202 0 0 1 226.05 73.8 Q 223.1 74.7 220 74.7 A 21.973 21.973 0 0 1 215.51 74.27 Q 212.739 73.691 210.629 72.335 A 12.159 12.159 0 0 1 208.6 70.7 Q 204.854 66.954 204.616 60.314 A 25.527 25.527 0 0 1 204.6 59.4 Z M 310.1 74.2 L 303 74.2 L 303 0 L 310.1 0 L 310.1 74.2 Z M 557.8 74.2 L 550.7 74.2 L 550.7 0 L 557.8 0 L 557.8 74.2 Z M 120.723 71.055 A 29.757 29.757 0 0 0 129.1 72.2 Q 136.1 72.2 141.7 69.2 Q 147.3 66.2 150.6 60.5 A 21.239 21.239 0 0 0 150.899 59.966 Q 152.622 56.783 153.355 52.85 A 34.067 34.067 0 0 0 153.9 46.6 A 40.242 40.242 0 0 0 153.898 46.154 Q 153.861 42.818 153.268 39.904 A 23.674 23.674 0 0 0 150.6 32.7 Q 147.3 27 141.7 24.1 Q 136.1 21.2 129.1 21.2 Q 121.6 21.2 115.6 24.4 Q 109.6 27.6 106.15 33.35 Q 102.7 39.1 102.7 46.6 Q 102.7 54.1 106.15 59.9 Q 109.6 65.7 115.6 68.95 A 26.054 26.054 0 0 0 120.723 71.055 Z M 818.723 71.055 A 29.757 29.757 0 0 0 827.1 72.2 Q 834.1 72.2 839.7 69.2 Q 845.3 66.2 848.6 60.5 A 21.239 21.239 0 0 0 848.899 59.966 Q 850.622 56.783 851.355 52.85 A 34.067 34.067 0 0 0 851.9 46.6 A 40.242 40.242 0 0 0 851.898 46.154 Q 851.861 42.818 851.268 39.904 A 23.674 23.674 0 0 0 848.6 32.7 Q 845.3 27 839.7 24.1 Q 834.1 21.2 827.1 21.2 Q 819.6 21.2 813.6 24.4 Q 807.6 27.6 804.15 33.35 Q 800.7 39.1 800.7 46.6 Q 800.7 54.1 804.15 59.9 Q 807.6 65.7 813.6 68.95 A 26.054 26.054 0 0 0 818.723 71.055 Z M 129.8 65.9 A 23.41 23.41 0 0 0 135.596 65.209 A 19.387 19.387 0 0 0 140.1 63.45 Q 144.6 61 147.2 56.65 A 18.368 18.368 0 0 0 149.657 49.198 A 23.087 23.087 0 0 0 149.8 46.6 Q 149.8 40.9 147.2 36.6 Q 144.6 32.3 140.1 29.85 Q 135.6 27.4 129.8 27.4 A 22.769 22.769 0 0 0 123.476 28.253 A 19.812 19.812 0 0 0 119.55 29.85 Q 115 32.3 112.45 36.6 Q 109.9 40.9 109.9 46.6 A 21.65 21.65 0 0 0 110.578 52.12 A 17.915 17.915 0 0 0 112.45 56.65 Q 115 61 119.55 63.45 A 20.63 20.63 0 0 0 127.703 65.814 A 25.118 25.118 0 0 0 129.8 65.9 Z M 827.8 65.9 A 23.41 23.41 0 0 0 833.596 65.209 A 19.387 19.387 0 0 0 838.1 63.45 Q 842.6 61 845.2 56.65 A 18.368 18.368 0 0 0 847.657 49.198 A 23.087 23.087 0 0 0 847.8 46.6 Q 847.8 40.9 845.2 36.6 Q 842.6 32.3 838.1 29.85 Q 833.6 27.4 827.8 27.4 A 22.769 22.769 0 0 0 821.476 28.253 A 19.812 19.812 0 0 0 817.55 29.85 Q 813 32.3 810.45 36.6 Q 807.9 40.9 807.9 46.6 A 21.65 21.65 0 0 0 808.578 52.12 A 17.915 17.915 0 0 0 810.45 56.65 Q 813 61 817.55 63.45 A 20.63 20.63 0 0 0 825.703 65.814 A 25.118 25.118 0 0 0 827.8 65.9 Z M 718.6 74.2 L 711.5 74.2 L 711.5 21.7 L 718.6 21.7 L 718.6 74.2 Z M 88.2 74.2 L 81.1 74.2 L 81.1 21.7 L 88.2 21.7 L 88.2 74.2 Z M 183.6 74.2 L 176.5 74.2 L 176.5 21.7 L 183.6 21.7 L 183.6 74.2 Z M 570.8 47.2 L 556.3 60.6 L 556.5 51.5 L 589.2 21.7 L 597.9 21.7 L 574.8 43.8 L 570.8 47.2 Z M 600.1 74.2 L 591.4 74.2 L 569.5 46.9 L 574.1 41.4 L 600.1 74.2 Z M 227.7 27.6 L 195.2 27.6 L 195.2 21.7 L 227.7 21.7 L 227.7 27.6 Z M 695.2 27.6 L 662.7 27.6 L 662.7 21.7 L 695.2 21.7 L 695.2 27.6 Z M 82.617 9.701 A 5.319 5.319 0 0 0 84.7 10.1 A 6.595 6.595 0 0 0 85.262 10.077 A 4.855 4.855 0 0 0 88.45 8.6 Q 89.9 7.1 89.9 4.9 A 5.746 5.746 0 0 0 89.897 4.705 A 4.564 4.564 0 0 0 88.4 1.4 A 5.06 5.06 0 0 0 86.667 0.329 A 5.705 5.705 0 0 0 84.7 0 A 6.621 6.621 0 0 0 84.623 0.001 A 5.104 5.104 0 0 0 81 1.45 A 5.686 5.686 0 0 0 80.908 1.542 A 4.737 4.737 0 0 0 79.5 5 A 5.844 5.844 0 0 0 79.5 5.066 A 4.905 4.905 0 0 0 81 8.6 A 5.04 5.04 0 0 0 82.617 9.701 Z M 178.017 9.701 A 5.319 5.319 0 0 0 180.1 10.1 A 6.595 6.595 0 0 0 180.662 10.077 A 4.855 4.855 0 0 0 183.85 8.6 Q 185.3 7.1 185.3 4.9 A 5.746 5.746 0 0 0 185.297 4.705 A 4.564 4.564 0 0 0 183.8 1.4 A 5.06 5.06 0 0 0 182.067 0.329 A 5.705 5.705 0 0 0 180.1 0 A 6.621 6.621 0 0 0 180.023 0.001 A 5.104 5.104 0 0 0 176.4 1.45 A 5.686 5.686 0 0 0 176.308 1.542 A 4.737 4.737 0 0 0 174.9 5 A 5.844 5.844 0 0 0 174.9 5.066 A 4.905 4.905 0 0 0 176.4 8.6 A 5.04 5.04 0 0 0 178.017 9.701 Z M 713.017 9.701 A 5.319 5.319 0 0 0 715.1 10.1 A 6.595 6.595 0 0 0 715.662 10.077 A 4.855 4.855 0 0 0 718.85 8.6 Q 720.3 7.1 720.3 4.9 A 5.746 5.746 0 0 0 720.297 4.705 A 4.564 4.564 0 0 0 718.8 1.4 A 5.06 5.06 0 0 0 717.067 0.329 A 5.705 5.705 0 0 0 715.1 0 A 6.621 6.621 0 0 0 715.023 0.001 A 5.104 5.104 0 0 0 711.4 1.45 A 5.686 5.686 0 0 0 711.308 1.542 A 4.737 4.737 0 0 0 709.9 5 A 5.844 5.844 0 0 0 709.9 5.066 A 4.905 4.905 0 0 0 711.4 8.6 A 5.04 5.04 0 0 0 713.017 9.701 Z" vector-effect="non-scaling-stroke"/></g></svg>