<svg width="1059.102" height="100.401" viewBox="0 0 1059.102 100.401" xmlns="http://www.w3.org/2000/svg"><g id="svgGroup" stroke-linecap="round" fill-rule="evenodd" font-size="9pt" stroke="#ffffff" stroke-width="0.5mm" fill="none" style="stroke:#ffffff;stroke-width:0.5mm;fill:none"><path d="M 746.901 75.1 L 731.801 29.8 A 12.869 12.869 0 0 1 731.578 28.666 Q 731.264 26.544 731.901 25.15 A 2.788 2.788 0 0 1 733.726 23.607 Q 734.258 23.445 734.92 23.41 A 7.145 7.145 0 0 1 735.301 23.4 A 5.308 5.308 0 0 1 736.66 23.566 A 4.082 4.082 0 0 1 738.151 24.3 A 4.259 4.259 0 0 1 739.011 25.23 Q 739.585 26.053 740.001 27.3 L 753.101 67.9 L 750.101 67.9 L 762.301 26.9 A 6.166 6.166 0 0 1 762.923 25.508 A 4.911 4.911 0 0 1 763.901 24.35 A 3.711 3.711 0 0 1 765.379 23.585 Q 765.934 23.435 766.592 23.407 A 7.214 7.214 0 0 1 766.901 23.4 A 5.592 5.592 0 0 1 768.208 23.545 A 4.009 4.009 0 0 1 769.851 24.35 A 4.534 4.534 0 0 1 771.253 26.404 A 5.771 5.771 0 0 1 771.401 26.9 L 782.101 66.1 L 780.501 66.1 L 793.001 27.3 A 7.729 7.729 0 0 1 793.752 25.571 Q 795.064 23.4 797.601 23.4 A 5.622 5.622 0 0 1 798.895 23.539 A 3.112 3.112 0 0 1 801.101 25.25 Q 802.001 27.1 801.001 29.8 L 785.901 75.1 A 4.136 4.136 0 0 1 784.36 77.244 A 5.041 5.041 0 0 1 784.351 77.25 A 4.332 4.332 0 0 1 782.197 78.069 A 5.576 5.576 0 0 1 781.601 78.1 A 4.706 4.706 0 0 1 779.392 77.539 A 5.895 5.895 0 0 1 778.901 77.25 A 4.256 4.256 0 0 1 778.038 76.517 A 3.189 3.189 0 0 1 777.301 75.1 L 766.101 35.6 L 767.201 35.6 L 755.701 75.1 A 3.863 3.863 0 0 1 754.438 76.959 A 5.011 5.011 0 0 1 754.051 77.25 Q 752.801 78.1 751.301 78.1 Q 749.801 78.1 748.601 77.25 A 4.776 4.776 0 0 1 747.293 75.887 A 4.562 4.562 0 0 1 746.901 75.1 Z M 269.701 53.9 L 228.601 53.9 L 228.601 46.5 L 269.801 46.5 L 265.701 49.4 A 25.176 25.176 0 0 0 265.023 43.932 A 20.685 20.685 0 0 0 263.601 39.9 A 16.086 16.086 0 0 0 259.746 34.702 A 15.486 15.486 0 0 0 257.901 33.3 A 14.714 14.714 0 0 0 252.252 31.159 A 19.693 19.693 0 0 0 249.001 30.9 A 20.975 20.975 0 0 0 243.997 31.472 A 16.424 16.424 0 0 0 239.151 33.5 Q 235.001 36.1 232.801 40.6 A 21.651 21.651 0 0 0 230.78 47.647 A 27.104 27.104 0 0 0 230.601 50.8 A 21.737 21.737 0 0 0 231.396 56.778 A 18.609 18.609 0 0 0 233.151 60.95 Q 235.701 65.4 240.151 68 A 18.97 18.97 0 0 0 247.297 70.395 A 24.265 24.265 0 0 0 250.501 70.6 A 18.922 18.922 0 0 0 254.913 70.059 A 23.381 23.381 0 0 0 257.151 69.4 Q 260.601 68.2 262.601 66.6 A 5.59 5.59 0 0 1 264.039 65.767 A 4.712 4.712 0 0 1 265.601 65.45 Q 267.201 65.4 268.401 66.4 A 5.977 5.977 0 0 1 269.298 67.439 A 4.009 4.009 0 0 1 270.001 69.45 A 3.38 3.38 0 0 1 270.007 69.655 Q 270.007 71.175 268.601 72.3 Q 265.201 75 260.151 76.75 A 32.773 32.773 0 0 1 254.762 78.141 A 26.141 26.141 0 0 1 250.501 78.5 A 32.949 32.949 0 0 1 242.46 77.556 A 26.887 26.887 0 0 1 235.851 74.95 Q 229.501 71.4 225.901 65.15 A 27.014 27.014 0 0 1 222.498 54.495 A 33.766 33.766 0 0 1 222.301 50.8 Q 222.301 42.6 225.701 36.35 Q 229.101 30.1 235.101 26.55 Q 241.101 23 249.001 23 A 28.843 28.843 0 0 1 255.705 23.746 A 22.379 22.379 0 0 1 262.301 26.45 Q 267.901 29.9 270.901 35.95 Q 273.901 42 273.901 49.9 Q 273.901 51.6 272.751 52.75 Q 271.601 53.9 269.701 53.9 Z M 331.501 53.9 L 290.401 53.9 L 290.401 46.5 L 331.601 46.5 L 327.501 49.4 A 25.176 25.176 0 0 0 326.823 43.932 A 20.685 20.685 0 0 0 325.401 39.9 A 16.086 16.086 0 0 0 321.546 34.702 A 15.486 15.486 0 0 0 319.701 33.3 A 14.714 14.714 0 0 0 314.052 31.159 A 19.693 19.693 0 0 0 310.801 30.9 A 20.975 20.975 0 0 0 305.797 31.472 A 16.424 16.424 0 0 0 300.951 33.5 Q 296.801 36.1 294.601 40.6 A 21.651 21.651 0 0 0 292.58 47.647 A 27.104 27.104 0 0 0 292.401 50.8 A 21.737 21.737 0 0 0 293.196 56.778 A 18.609 18.609 0 0 0 294.951 60.95 Q 297.501 65.4 301.951 68 A 18.97 18.97 0 0 0 309.097 70.395 A 24.265 24.265 0 0 0 312.301 70.6 A 18.922 18.922 0 0 0 316.713 70.059 A 23.381 23.381 0 0 0 318.951 69.4 Q 322.401 68.2 324.401 66.6 A 5.59 5.59 0 0 1 325.839 65.767 A 4.712 4.712 0 0 1 327.401 65.45 Q 329.001 65.4 330.201 66.4 A 5.977 5.977 0 0 1 331.098 67.439 A 4.009 4.009 0 0 1 331.801 69.45 A 3.38 3.38 0 0 1 331.807 69.655 Q 331.807 71.175 330.401 72.3 Q 327.001 75 321.951 76.75 A 32.773 32.773 0 0 1 316.562 78.141 A 26.141 26.141 0 0 1 312.301 78.5 A 32.949 32.949 0 0 1 304.26 77.556 A 26.887 26.887 0 0 1 297.651 74.95 Q 291.301 71.4 287.701 65.15 A 27.014 27.014 0 0 1 284.298 54.495 A 33.766 33.766 0 0 1 284.101 50.8 Q 284.101 42.6 287.501 36.35 Q 290.901 30.1 296.901 26.55 Q 302.901 23 310.801 23 A 28.843 28.843 0 0 1 317.505 23.746 A 22.379 22.379 0 0 1 324.101 26.45 Q 329.701 29.9 332.701 35.95 Q 335.701 42 335.701 49.9 Q 335.701 51.6 334.551 52.75 Q 333.401 53.9 331.501 53.9 Z M 723.701 50.8 A 35.271 35.271 0 0 0 723.371 46.342 A 27.833 27.833 0 0 0 720.051 36.35 Q 716.501 30.1 710.301 26.55 A 25.893 25.893 0 0 0 703.849 23.944 A 31.428 31.428 0 0 0 696.001 23 A 33.672 33.672 0 0 0 692.584 23.17 A 27.275 27.275 0 0 0 681.751 26.55 Q 675.501 30.1 671.951 36.35 Q 668.401 42.6 668.401 50.8 Q 668.401 58.9 671.751 65.15 Q 675.101 71.4 680.951 74.95 A 23.619 23.619 0 0 0 687.052 77.556 A 28.347 28.347 0 0 0 694.501 78.5 A 27.053 27.053 0 0 0 695.992 78.46 A 22.234 22.234 0 0 0 706.801 75.1 A 22.643 22.643 0 0 0 709.818 72.832 A 23.949 23.949 0 0 0 715.251 65.65 Q 718.301 59.6 718.301 51.7 L 723.701 50.8 L 717.801 49.2 L 714.701 56.8 L 714.701 71.4 A 34.252 34.252 0 0 1 714.701 71.422 Q 714.699 74.254 714.222 76.734 A 20.29 20.29 0 0 1 712.201 82.55 A 21.117 21.117 0 0 1 711.549 83.678 A 17.356 17.356 0 0 1 705.501 89.65 Q 701.301 92.1 696.201 92.1 Q 690.601 92.1 686.351 90.1 Q 682.101 88.1 679.301 84.6 Q 678.201 83.2 676.401 82.85 A 4.484 4.484 0 0 0 675.543 82.766 Q 674.9 82.766 674.283 82.962 A 4.858 4.858 0 0 0 673.001 83.6 A 5.044 5.044 0 0 0 672.774 83.76 A 3.715 3.715 0 0 0 671.251 86.25 Q 671.085 87.345 671.558 88.375 A 4.969 4.969 0 0 0 672.201 89.4 Q 676.301 94.7 682.451 97.55 A 29.711 29.711 0 0 0 686.826 99.173 A 33.407 33.407 0 0 0 696.001 100.4 Q 704.101 100.4 710.351 96.6 Q 716.601 92.8 720.151 86.35 A 27.824 27.824 0 0 0 722.314 81.295 A 31.047 31.047 0 0 0 723.701 71.9 L 723.701 50.8 Z M 1037.601 78.5 Q 1031.001 78.5 1025.101 76.45 Q 1019.201 74.4 1015.801 70.8 A 4.887 4.887 0 0 1 1015.03 69.62 Q 1014.674 68.833 1014.674 67.975 A 4.296 4.296 0 0 1 1014.701 67.5 A 4.357 4.357 0 0 1 1015.908 64.949 A 5.997 5.997 0 0 1 1016.501 64.4 A 6.038 6.038 0 0 1 1017.71 63.671 Q 1018.834 63.171 1020.001 63.3 Q 1021.801 63.5 1023.001 64.9 Q 1025.001 67.1 1028.851 68.7 A 21.077 21.077 0 0 0 1035.324 70.224 A 25.124 25.124 0 0 0 1037.301 70.3 A 31.458 31.458 0 0 0 1040.692 70.13 Q 1044.687 69.696 1046.951 68.15 A 8.892 8.892 0 0 0 1048.689 66.626 A 5.998 5.998 0 0 0 1050.201 62.8 A 6.293 6.293 0 0 0 1048.193 58.169 A 9.554 9.554 0 0 0 1047.101 57.25 A 11.879 11.879 0 0 0 1044.985 56.06 Q 1042.614 54.996 1038.891 54.206 A 62.38 62.38 0 0 0 1036.201 53.7 A 55.528 55.528 0 0 1 1030.954 52.465 Q 1025.409 50.851 1022.176 48.353 A 15.03 15.03 0 0 1 1021.501 47.8 A 14.009 14.009 0 0 1 1018.438 44.123 A 12.051 12.051 0 0 1 1016.901 38.1 A 15.002 15.002 0 0 1 1017.399 34.143 A 11.516 11.516 0 0 1 1019.751 29.65 Q 1022.601 26.3 1027.251 24.65 A 29.225 29.225 0 0 1 1037.06 23 A 32.726 32.726 0 0 1 1037.101 23 A 34.372 34.372 0 0 1 1042.937 23.473 A 25.499 25.499 0 0 1 1048.701 25.15 A 21.937 21.937 0 0 1 1053.571 27.995 A 18.409 18.409 0 0 1 1056.701 31.1 Q 1057.866 32.445 1057.866 33.87 A 3.533 3.533 0 0 1 1057.851 34.2 A 3.502 3.502 0 0 1 1056.792 36.395 A 5.037 5.037 0 0 1 1056.201 36.9 Q 1054.759 37.765 1052.902 37.522 A 6.838 6.838 0 0 1 1052.751 37.5 Q 1050.801 37.2 1049.501 35.8 A 15.2 15.2 0 0 0 1046.514 33.366 A 12.889 12.889 0 0 0 1043.951 32.15 A 18.579 18.579 0 0 0 1040.47 31.335 Q 1038.817 31.104 1036.96 31.1 A 30.433 30.433 0 0 0 1036.901 31.1 Q 1032.101 31.1 1028.951 32.9 A 7.619 7.619 0 0 0 1027.324 34.118 A 5.025 5.025 0 0 0 1025.801 37.8 Q 1025.801 39.8 1026.851 41.3 A 5.267 5.267 0 0 0 1027.791 42.302 Q 1028.898 43.23 1030.801 44.05 A 22.351 22.351 0 0 0 1032.857 44.807 Q 1035.032 45.499 1038.08 46.105 A 80.673 80.673 0 0 0 1039.101 46.3 A 66.154 66.154 0 0 1 1043.481 47.263 Q 1047.96 48.419 1050.951 50 Q 1054.354 51.8 1056.258 54.089 A 11.227 11.227 0 0 1 1057.201 55.4 A 12.985 12.985 0 0 1 1059.089 61.796 A 15.638 15.638 0 0 1 1059.101 62.4 Q 1059.101 67 1056.551 70.65 A 15.6 15.6 0 0 1 1052.235 74.773 A 20.672 20.672 0 0 1 1049.201 76.4 A 23.598 23.598 0 0 1 1044.081 77.942 Q 1041.107 78.5 1037.601 78.5 Z M 529.634 77.28 A 29.213 29.213 0 0 0 538.201 78.5 A 33.066 33.066 0 0 0 541.234 78.364 A 24.801 24.801 0 0 0 556.301 71.8 Q 557.427 70.76 557.427 69.42 A 3.381 3.381 0 0 0 557.401 69 A 4.067 4.067 0 0 0 556.635 67.106 A 5.93 5.93 0 0 0 555.701 66.1 A 3.756 3.756 0 0 0 553.23 65.191 A 4.332 4.332 0 0 0 552.951 65.2 A 4.49 4.49 0 0 0 551.208 65.684 A 6.018 6.018 0 0 0 550.001 66.5 Q 547.701 68.5 544.801 69.4 A 19.288 19.288 0 0 1 541.597 70.089 A 26.05 26.05 0 0 1 538.201 70.3 A 21.726 21.726 0 0 1 536.502 70.235 A 17.656 17.656 0 0 1 528.601 67.75 Q 524.401 65.2 522.051 60.8 A 19.212 19.212 0 0 1 520.403 56.566 A 22.846 22.846 0 0 1 519.701 50.8 A 26.545 26.545 0 0 1 520.072 46.262 A 19.666 19.666 0 0 1 521.951 40.55 Q 524.201 36.2 528.251 33.7 A 16.213 16.213 0 0 1 532.322 31.906 A 19.088 19.088 0 0 1 537.601 31.2 A 20.881 20.881 0 0 1 538.326 31.213 A 17.11 17.11 0 0 1 550.701 36.9 A 6.07 6.07 0 0 0 551.225 37.442 A 4.597 4.597 0 0 0 553.501 38.6 A 4.659 4.659 0 0 0 553.662 38.628 Q 555.162 38.855 556.301 38 A 7.654 7.654 0 0 0 556.426 37.91 Q 557.021 37.471 557.441 36.98 A 4.05 4.05 0 0 0 558.351 35.2 Q 558.701 33.6 557.401 32.2 A 29.84 29.84 0 0 0 555.899 30.556 A 25.035 25.035 0 0 0 548.501 25.3 A 24.466 24.466 0 0 0 545.863 24.267 A 26.474 26.474 0 0 0 537.601 23 Q 529.701 23 523.701 26.55 Q 517.701 30.1 514.251 36.4 A 27.066 27.066 0 0 0 511.774 42.702 A 32.489 32.489 0 0 0 510.801 50.8 Q 510.801 58.7 514.351 64.95 Q 517.901 71.2 524.101 74.85 A 25.582 25.582 0 0 0 529.634 77.28 Z M 46.001 32.6 L 46.001 4.6 A 5.5 5.5 0 0 1 46.183 3.145 A 4.066 4.066 0 0 1 47.301 1.25 A 4.435 4.435 0 0 1 50.05 0.025 A 5.958 5.958 0 0 1 50.601 0 A 5.748 5.748 0 0 1 52.119 0.191 A 4.305 4.305 0 0 1 54.001 1.25 A 4.16 4.16 0 0 1 55.229 3.663 A 5.922 5.922 0 0 1 55.301 4.6 L 55.301 50.9 A 29.392 29.392 0 0 1 53.525 60.81 A 27.197 27.197 0 0 1 51.551 65 Q 47.901 71.3 41.651 74.9 A 27.151 27.151 0 0 1 29.526 78.444 A 32.604 32.604 0 0 1 27.601 78.5 A 28.612 28.612 0 0 1 18.243 77.002 A 26.092 26.092 0 0 1 13.551 74.85 Q 7.301 71.2 3.651 64.9 A 27.298 27.298 0 0 1 0.058 52.65 A 32.963 32.963 0 0 1 0.001 50.7 A 31.503 31.503 0 0 1 1.076 42.335 A 27.018 27.018 0 0 1 3.401 36.55 Q 6.801 30.3 12.701 26.65 Q 18.601 23 26.101 23 A 25.725 25.725 0 0 1 34.129 24.229 A 23.61 23.61 0 0 1 37.451 25.6 Q 42.601 28.2 46.001 32.6 Z M 487.401 73.6 L 487.401 48.4 A 26.037 26.037 0 0 0 487.117 44.437 Q 486.61 41.153 485.201 38.75 A 14.307 14.307 0 0 0 481.16 34.267 A 13.911 13.911 0 0 0 479.301 33.15 A 17.412 17.412 0 0 0 473.832 31.499 A 22.366 22.366 0 0 0 470.801 31.3 A 19.383 19.383 0 0 0 466.023 31.87 A 16.437 16.437 0 0 0 462.701 33.1 Q 459.101 34.9 456.951 37.9 Q 454.801 40.9 454.801 44.8 L 448.801 44.8 Q 448.901 38.5 452.001 33.55 Q 455.101 28.6 460.401 25.75 A 24.068 24.068 0 0 1 470.07 22.984 A 29.113 29.113 0 0 1 472.301 22.9 A 28.443 28.443 0 0 1 479.508 23.782 A 23.954 23.954 0 0 1 484.801 25.85 Q 490.301 28.8 493.501 34.5 A 24.03 24.03 0 0 1 496.044 41.482 Q 496.701 44.685 496.701 48.4 L 496.701 73.6 A 4.424 4.424 0 0 1 495.392 76.808 A 5.392 5.392 0 0 1 495.351 76.85 A 4.425 4.425 0 0 1 492.16 78.2 A 5.312 5.312 0 0 1 492.101 78.2 Q 490.101 78.2 488.751 76.85 A 4.425 4.425 0 0 1 487.401 73.659 A 5.312 5.312 0 0 1 487.401 73.6 Z M 645.001 73.6 L 645.001 48.4 A 26.037 26.037 0 0 0 644.717 44.437 Q 644.21 41.153 642.801 38.75 A 14.307 14.307 0 0 0 638.76 34.267 A 13.911 13.911 0 0 0 636.901 33.15 A 17.412 17.412 0 0 0 631.432 31.499 A 22.366 22.366 0 0 0 628.401 31.3 A 19.383 19.383 0 0 0 623.623 31.87 A 16.437 16.437 0 0 0 620.301 33.1 Q 616.701 34.9 614.551 37.9 Q 612.401 40.9 612.401 44.8 L 606.401 44.8 Q 606.501 38.5 609.601 33.55 Q 612.701 28.6 618.001 25.75 A 24.068 24.068 0 0 1 627.67 22.984 A 29.113 29.113 0 0 1 629.901 22.9 A 28.443 28.443 0 0 1 637.108 23.782 A 23.954 23.954 0 0 1 642.401 25.85 Q 647.901 28.8 651.101 34.5 A 24.03 24.03 0 0 1 653.644 41.482 Q 654.301 44.685 654.301 48.4 L 654.301 73.6 A 4.424 4.424 0 0 1 652.992 76.808 A 5.392 5.392 0 0 1 652.951 76.85 A 4.425 4.425 0 0 1 649.76 78.2 A 5.312 5.312 0 0 1 649.701 78.2 Q 647.701 78.2 646.351 76.85 A 4.425 4.425 0 0 1 645.001 73.659 A 5.312 5.312 0 0 1 645.001 73.6 Z M 923.701 73.6 L 923.701 48.4 A 26.037 26.037 0 0 0 923.417 44.437 Q 922.91 41.153 921.501 38.75 A 14.307 14.307 0 0 0 917.46 34.267 A 13.911 13.911 0 0 0 915.601 33.15 A 17.412 17.412 0 0 0 910.132 31.499 A 22.366 22.366 0 0 0 907.101 31.3 A 19.383 19.383 0 0 0 902.323 31.87 A 16.437 16.437 0 0 0 899.001 33.1 Q 895.401 34.9 893.251 37.9 Q 891.101 40.9 891.101 44.8 L 885.101 44.8 Q 885.201 38.5 888.301 33.55 Q 891.401 28.6 896.701 25.75 A 24.068 24.068 0 0 1 906.37 22.984 A 29.113 29.113 0 0 1 908.601 22.9 A 28.443 28.443 0 0 1 915.808 23.782 A 23.954 23.954 0 0 1 921.101 25.85 Q 926.601 28.8 929.801 34.5 A 24.03 24.03 0 0 1 932.344 41.482 Q 933.001 44.685 933.001 48.4 L 933.001 73.6 A 4.424 4.424 0 0 1 931.692 76.808 A 5.392 5.392 0 0 1 931.651 76.85 A 4.425 4.425 0 0 1 928.46 78.2 A 5.312 5.312 0 0 1 928.401 78.2 Q 926.401 78.2 925.051 76.85 A 4.425 4.425 0 0 1 923.701 73.659 A 5.312 5.312 0 0 1 923.701 73.6 Z M 948.901 53.1 L 948.901 27.9 A 4.424 4.424 0 0 1 950.209 24.693 A 5.392 5.392 0 0 1 950.251 24.65 A 4.425 4.425 0 0 1 953.441 23.301 A 5.312 5.312 0 0 1 953.501 23.3 Q 955.501 23.3 956.851 24.65 A 4.425 4.425 0 0 1 958.2 27.841 A 5.312 5.312 0 0 1 958.201 27.9 L 958.201 53.1 Q 958.201 57.881 959.695 61.302 A 13.855 13.855 0 0 0 960.401 62.7 Q 962.601 66.5 966.351 68.35 Q 970.101 70.2 974.801 70.2 Q 979.401 70.2 982.951 68.4 A 15.727 15.727 0 0 0 987.331 65.167 A 14.705 14.705 0 0 0 988.651 63.55 Q 990.801 60.5 990.801 56.7 L 996.801 56.7 Q 996.601 62.9 993.551 67.9 Q 990.501 72.9 985.201 75.75 A 24.068 24.068 0 0 1 975.531 78.516 A 29.113 29.113 0 0 1 973.301 78.6 A 28.443 28.443 0 0 1 966.093 77.718 A 23.954 23.954 0 0 1 960.801 75.65 Q 955.301 72.7 952.101 67 A 24.03 24.03 0 0 1 949.558 60.018 Q 948.901 56.816 948.901 53.1 Z M 142.701 73.5 L 142.701 23.6 A 31.548 31.548 0 0 1 143.294 17.339 A 23.887 23.887 0 0 1 145.401 11.2 Q 148.101 5.9 153.051 2.95 A 20.756 20.756 0 0 1 160.684 0.288 A 27.093 27.093 0 0 1 164.701 0 A 5.469 5.469 0 0 1 166.264 0.214 A 4.355 4.355 0 0 1 168.001 1.2 A 3.894 3.894 0 0 1 169.298 4.033 A 4.871 4.871 0 0 1 169.301 4.2 A 3.936 3.936 0 0 1 168.09 7.062 A 5.214 5.214 0 0 1 168.001 7.15 A 4.435 4.435 0 0 1 165.251 8.375 A 5.958 5.958 0 0 1 164.701 8.4 A 14.865 14.865 0 0 0 161.366 8.757 A 11.244 11.244 0 0 0 157.851 10.2 A 11.745 11.745 0 0 0 153.649 14.85 A 14.152 14.152 0 0 0 153.451 15.25 A 15.442 15.442 0 0 0 152.197 19.27 A 21.17 21.17 0 0 0 151.901 22.9 L 151.901 73.5 A 5.708 5.708 0 0 1 151.725 74.956 A 4.103 4.103 0 0 1 150.651 76.85 A 4.062 4.062 0 0 1 148.825 77.886 Q 148.198 78.06 147.451 78.093 A 8.028 8.028 0 0 1 147.101 78.1 A 4.305 4.305 0 0 1 144.285 77.056 A 5.629 5.629 0 0 1 144.051 76.85 A 4.141 4.141 0 0 1 142.75 74.273 A 5.843 5.843 0 0 1 142.701 73.5 Z M 361.901 78.1 L 361.201 78.1 Q 357.001 78.1 353.701 75.8 A 14.782 14.782 0 0 1 349.295 70.907 A 18.253 18.253 0 0 1 348.551 69.45 A 20.122 20.122 0 0 1 346.983 64.05 A 26.588 26.588 0 0 1 346.701 60.1 L 346.701 4.5 A 5.212 5.212 0 0 1 346.907 2.999 A 4.1 4.1 0 0 1 347.951 1.25 A 4.209 4.209 0 0 1 350.477 0.044 A 5.784 5.784 0 0 1 351.201 0 A 5.708 5.708 0 0 1 352.656 0.176 A 4.103 4.103 0 0 1 354.551 1.25 A 4.209 4.209 0 0 1 355.757 3.777 A 5.784 5.784 0 0 1 355.801 4.5 L 355.801 60.1 A 16.105 16.105 0 0 0 356.016 62.815 Q 356.274 64.321 356.84 65.548 A 8.773 8.773 0 0 0 357.351 66.5 A 6.905 6.905 0 0 0 358.309 67.737 Q 359.565 69 361.201 69 L 363.701 69 A 4.654 4.654 0 0 1 365.013 69.176 A 3.524 3.524 0 0 1 366.701 70.25 Q 367.772 71.468 367.8 73.491 A 7.892 7.892 0 0 1 367.801 73.6 A 3.833 3.833 0 0 1 366.537 76.526 A 4.987 4.987 0 0 1 366.151 76.85 Q 364.501 78.1 361.901 78.1 Z M 89.764 77.408 A 30.784 30.784 0 0 0 98.101 78.5 A 33.906 33.906 0 0 0 102.151 78.264 A 26.847 26.847 0 0 0 112.401 74.95 Q 118.601 71.4 122.201 65.15 A 26.027 26.027 0 0 0 124.785 58.884 A 31.045 31.045 0 0 0 125.801 50.8 A 35.271 35.271 0 0 0 125.471 46.342 A 27.833 27.833 0 0 0 122.151 36.35 Q 118.601 30.1 112.351 26.55 A 26.276 26.276 0 0 0 106.437 24.092 A 30.784 30.784 0 0 0 98.101 23 A 33.672 33.672 0 0 0 94.684 23.17 A 27.275 27.275 0 0 0 83.851 26.55 Q 77.601 30.1 74.051 36.35 Q 70.501 42.6 70.501 50.8 A 34.072 34.072 0 0 0 70.723 54.735 A 27.211 27.211 0 0 0 74.051 65.15 Q 77.601 71.4 83.851 74.95 A 26.276 26.276 0 0 0 89.764 77.408 Z M 430.501 50.8 L 426.901 51.7 A 29.192 29.192 0 0 1 425.589 60.562 A 26.09 26.09 0 0 1 423.501 65.4 Q 420.101 71.5 414.351 75 A 24.143 24.143 0 0 1 403.101 78.446 A 29.301 29.301 0 0 1 401.301 78.5 A 26.691 26.691 0 0 1 392.856 77.197 A 23.933 23.933 0 0 1 387.901 74.9 Q 382.001 71.3 378.601 65 Q 375.201 58.7 375.201 50.8 A 29.939 29.939 0 0 1 376.356 42.354 A 25.873 25.873 0 0 1 378.851 36.55 Q 382.501 30.3 388.751 26.65 A 26.97 26.97 0 0 1 401.292 23.035 A 32.405 32.405 0 0 1 402.801 23 A 29.213 29.213 0 0 1 411.367 24.22 A 25.582 25.582 0 0 1 416.901 26.65 Q 423.101 30.3 426.751 36.6 Q 430.401 42.9 430.501 50.8 Z M 864.201 78.1 L 862.301 78.1 A 17.479 17.479 0 0 1 855.486 76.783 A 16.753 16.753 0 0 1 853.101 75.55 Q 849.001 73 846.701 68.65 A 19.806 19.806 0 0 1 844.583 61.751 A 24.932 24.932 0 0 1 844.401 58.7 L 844.401 10.6 A 5.242 5.242 0 0 1 844.636 8.997 A 4.314 4.314 0 0 1 845.651 7.3 A 4.178 4.178 0 0 1 848.353 6.026 A 5.701 5.701 0 0 1 848.901 6 A 5.034 5.034 0 0 1 850.543 6.258 A 4.286 4.286 0 0 1 852.201 7.3 A 4.391 4.391 0 0 1 853.489 10.231 A 5.865 5.865 0 0 1 853.501 10.6 L 853.501 58.7 A 13.268 13.268 0 0 0 853.913 62.092 A 9.925 9.925 0 0 0 856.001 66.1 A 8.283 8.283 0 0 0 858.924 68.32 A 8.242 8.242 0 0 0 862.301 69 L 865.401 69 A 3.628 3.628 0 0 1 868.1 70.138 A 4.577 4.577 0 0 1 868.251 70.3 A 4.529 4.529 0 0 1 869.337 72.698 A 6.184 6.184 0 0 1 869.401 73.6 A 4.475 4.475 0 0 1 869.108 75.246 A 4.055 4.055 0 0 1 867.951 76.85 A 5.045 5.045 0 0 1 865.587 77.972 A 7.151 7.151 0 0 1 864.201 78.1 Z M 881.901 52.6 L 881.901 4.6 A 5.5 5.5 0 0 1 882.083 3.145 A 4.066 4.066 0 0 1 883.201 1.25 A 4.435 4.435 0 0 1 885.95 0.025 A 5.958 5.958 0 0 1 886.501 0 A 5.708 5.708 0 0 1 887.956 0.176 A 4.103 4.103 0 0 1 889.851 1.25 A 4.175 4.175 0 0 1 891.002 3.486 A 5.997 5.997 0 0 1 891.101 4.6 L 891.101 52.6 Q 891.101 54.6 889.851 55.95 A 4.141 4.141 0 0 1 887.273 57.251 A 5.843 5.843 0 0 1 886.501 57.3 A 4.851 4.851 0 0 1 884.832 57.023 A 4.269 4.269 0 0 1 883.201 55.95 A 4.604 4.604 0 0 1 881.904 52.788 A 6.015 6.015 0 0 1 881.901 52.6 Z M 98.101 70.3 A 20.543 20.543 0 0 0 103.502 69.615 A 17.143 17.143 0 0 0 107.801 67.8 Q 112.001 65.3 114.401 60.9 A 19.609 19.609 0 0 0 116.611 53.904 A 24.71 24.71 0 0 0 116.801 50.8 A 23.17 23.17 0 0 0 116.123 45.097 A 19.312 19.312 0 0 0 114.401 40.65 Q 112.001 36.2 107.801 33.7 A 17.782 17.782 0 0 0 100.607 31.338 A 22.358 22.358 0 0 0 98.101 31.2 A 19.939 19.939 0 0 0 92.167 32.059 A 17.557 17.557 0 0 0 88.451 33.7 Q 84.201 36.2 81.801 40.65 Q 79.401 45.1 79.401 50.8 A 23.049 23.049 0 0 0 80.058 56.411 A 18.928 18.928 0 0 0 81.801 60.9 Q 84.201 65.3 88.451 67.8 A 18.216 18.216 0 0 0 96.441 70.239 A 22.234 22.234 0 0 0 98.101 70.3 Z M 696.001 70.3 A 20.543 20.543 0 0 0 701.402 69.615 A 17.143 17.143 0 0 0 705.701 67.8 Q 709.901 65.3 712.301 60.9 A 19.609 19.609 0 0 0 714.511 53.904 A 24.71 24.71 0 0 0 714.701 50.8 A 23.17 23.17 0 0 0 714.023 45.097 A 19.312 19.312 0 0 0 712.301 40.65 Q 709.901 36.2 705.701 33.7 A 17.782 17.782 0 0 0 698.507 31.338 A 22.358 22.358 0 0 0 696.001 31.2 A 19.939 19.939 0 0 0 690.067 32.059 A 17.557 17.557 0 0 0 686.351 33.7 Q 682.101 36.2 679.701 40.65 Q 677.301 45.1 677.301 50.8 A 23.049 23.049 0 0 0 677.958 56.411 A 18.928 18.928 0 0 0 679.701 60.9 Q 682.101 65.3 686.351 67.8 A 18.216 18.216 0 0 0 694.341 70.239 A 22.234 22.234 0 0 0 696.001 70.3 Z M 27.601 70.3 A 19.511 19.511 0 0 0 33.296 69.493 A 17.019 17.019 0 0 0 37.201 67.75 Q 41.401 65.2 43.851 60.75 A 19.871 19.871 0 0 0 46.215 52.76 A 24.222 24.222 0 0 0 46.301 50.7 A 21.884 21.884 0 0 0 45.525 44.78 A 18.728 18.728 0 0 0 43.851 40.7 Q 41.401 36.3 37.201 33.75 A 17.656 17.656 0 0 0 29.3 31.266 A 21.726 21.726 0 0 0 27.601 31.2 Q 22.401 31.2 18.101 33.75 Q 13.801 36.3 11.351 40.7 A 19.452 19.452 0 0 0 9.018 48.308 A 23.94 23.94 0 0 0 8.901 50.7 A 21.948 21.948 0 0 0 9.742 56.868 A 19.108 19.108 0 0 0 11.351 60.75 Q 13.801 65.2 18.101 67.75 Q 22.401 70.3 27.601 70.3 Z M 402.801 70.3 A 19.511 19.511 0 0 0 408.496 69.493 A 17.019 17.019 0 0 0 412.401 67.75 Q 416.601 65.2 419.051 60.75 A 19.927 19.927 0 0 0 421.462 52.159 A 23.853 23.853 0 0 0 421.501 50.8 A 21.948 21.948 0 0 0 420.659 44.633 A 19.108 19.108 0 0 0 419.051 40.75 Q 416.601 36.3 412.401 33.75 A 17.656 17.656 0 0 0 404.5 31.266 A 21.726 21.726 0 0 0 402.801 31.2 Q 397.601 31.2 393.301 33.75 Q 389.001 36.3 386.551 40.75 A 19.871 19.871 0 0 0 384.187 48.741 A 24.222 24.222 0 0 0 384.101 50.8 A 21.271 21.271 0 0 0 385.106 57.416 A 19.219 19.219 0 0 0 386.551 60.75 Q 389.001 65.2 393.301 67.75 Q 397.601 70.3 402.801 70.3 Z M 177.601 73.6 L 177.601 27.9 A 5.927 5.927 0 0 1 177.749 26.535 A 3.962 3.962 0 0 1 178.801 24.6 A 3.969 3.969 0 0 1 180.763 23.542 A 5.954 5.954 0 0 1 182.101 23.4 A 7.332 7.332 0 0 1 183.395 23.507 Q 184.751 23.751 185.551 24.55 Q 186.565 25.565 186.685 27.396 A 7.739 7.739 0 0 1 186.701 27.9 L 186.701 73.6 A 6.202 6.202 0 0 1 186.565 74.938 Q 186.305 76.113 185.551 76.9 A 3.619 3.619 0 0 1 184.018 77.832 Q 183.447 78.016 182.755 78.074 A 7.895 7.895 0 0 1 182.101 78.1 A 6.202 6.202 0 0 1 180.763 77.964 Q 179.588 77.705 178.801 76.95 A 3.685 3.685 0 0 1 177.818 75.283 Q 177.648 74.7 177.611 74.001 A 7.549 7.549 0 0 1 177.601 73.6 Z M 445.601 73.6 L 445.601 28 A 5.5 5.5 0 0 1 445.783 26.545 A 4.066 4.066 0 0 1 446.901 24.65 A 4.435 4.435 0 0 1 449.65 23.425 A 5.958 5.958 0 0 1 450.201 23.4 A 5.708 5.708 0 0 1 451.656 23.576 A 4.103 4.103 0 0 1 453.551 24.65 A 4.175 4.175 0 0 1 454.702 26.886 A 5.997 5.997 0 0 1 454.801 28 L 454.801 73.6 A 5.242 5.242 0 0 1 454.566 75.203 A 4.314 4.314 0 0 1 453.551 76.9 A 4.16 4.16 0 0 1 451.138 78.129 A 5.922 5.922 0 0 1 450.201 78.2 A 5.034 5.034 0 0 1 448.558 77.942 A 4.286 4.286 0 0 1 446.901 76.9 A 4.391 4.391 0 0 1 445.612 73.969 A 5.865 5.865 0 0 1 445.601 73.6 Z M 603.201 73.6 L 603.201 28 A 5.5 5.5 0 0 1 603.383 26.545 A 4.066 4.066 0 0 1 604.501 24.65 A 4.435 4.435 0 0 1 607.25 23.425 A 5.958 5.958 0 0 1 607.801 23.4 A 5.708 5.708 0 0 1 609.256 23.576 A 4.103 4.103 0 0 1 611.151 24.65 A 4.175 4.175 0 0 1 612.302 26.886 A 5.997 5.997 0 0 1 612.401 28 L 612.401 73.6 A 5.242 5.242 0 0 1 612.166 75.203 A 4.314 4.314 0 0 1 611.151 76.9 A 4.16 4.16 0 0 1 608.738 78.129 A 5.922 5.922 0 0 1 607.801 78.2 A 5.034 5.034 0 0 1 606.158 77.942 A 4.286 4.286 0 0 1 604.501 76.9 A 4.391 4.391 0 0 1 603.212 73.969 A 5.865 5.865 0 0 1 603.201 73.6 Z M 881.901 73.6 L 881.901 28 A 5.5 5.5 0 0 1 882.083 26.545 A 4.066 4.066 0 0 1 883.201 24.65 A 4.435 4.435 0 0 1 885.95 23.425 A 5.958 5.958 0 0 1 886.501 23.4 A 5.708 5.708 0 0 1 887.956 23.576 A 4.103 4.103 0 0 1 889.851 24.65 A 4.175 4.175 0 0 1 891.002 26.886 A 5.997 5.997 0 0 1 891.101 28 L 891.101 73.6 A 5.242 5.242 0 0 1 890.866 75.203 A 4.314 4.314 0 0 1 889.851 76.9 A 4.16 4.16 0 0 1 887.438 78.129 A 5.922 5.922 0 0 1 886.501 78.2 A 5.034 5.034 0 0 1 884.858 77.942 A 4.286 4.286 0 0 1 883.201 76.9 A 4.391 4.391 0 0 1 881.912 73.969 A 5.865 5.865 0 0 1 881.901 73.6 Z M 574.701 73.5 L 574.701 28 A 5.5 5.5 0 0 1 574.883 26.545 A 4.066 4.066 0 0 1 576.001 24.65 Q 577.301 23.4 579.401 23.4 A 5.242 5.242 0 0 1 581.003 23.635 A 4.314 4.314 0 0 1 582.701 24.65 A 4.16 4.16 0 0 1 583.929 27.063 A 5.922 5.922 0 0 1 584.001 28 L 584.001 73.5 A 5.034 5.034 0 0 1 583.743 75.143 A 4.286 4.286 0 0 1 582.701 76.8 A 4.391 4.391 0 0 1 579.769 78.089 A 5.865 5.865 0 0 1 579.401 78.1 A 5.52 5.52 0 0 1 577.854 77.894 A 4.262 4.262 0 0 1 576.001 76.8 A 4.391 4.391 0 0 1 574.712 73.869 A 5.865 5.865 0 0 1 574.701 73.5 Z M 813.301 73.5 L 813.301 28 A 5.5 5.5 0 0 1 813.483 26.545 A 4.066 4.066 0 0 1 814.601 24.65 Q 815.901 23.4 818.001 23.4 A 5.242 5.242 0 0 1 819.603 23.635 A 4.314 4.314 0 0 1 821.301 24.65 A 4.16 4.16 0 0 1 822.529 27.063 A 5.922 5.922 0 0 1 822.601 28 L 822.601 73.5 A 5.034 5.034 0 0 1 822.343 75.143 A 4.286 4.286 0 0 1 821.301 76.8 A 4.391 4.391 0 0 1 818.369 78.089 A 5.865 5.865 0 0 1 818.001 78.1 A 5.52 5.52 0 0 1 816.454 77.894 A 4.262 4.262 0 0 1 814.601 76.8 A 4.391 4.391 0 0 1 813.312 73.869 A 5.865 5.865 0 0 1 813.301 73.5 Z M 990.801 73.5 L 990.801 27.9 A 5.034 5.034 0 0 1 991.058 26.258 A 4.286 4.286 0 0 1 992.101 24.6 A 4.391 4.391 0 0 1 995.032 23.312 A 5.865 5.865 0 0 1 995.401 23.3 A 5.034 5.034 0 0 1 997.043 23.558 A 4.286 4.286 0 0 1 998.701 24.6 A 4.391 4.391 0 0 1 999.989 27.531 A 5.865 5.865 0 0 1 1000.001 27.9 L 1000.001 73.5 A 5.034 5.034 0 0 1 999.743 75.143 A 4.286 4.286 0 0 1 998.701 76.8 A 4.391 4.391 0 0 1 995.769 78.089 A 5.865 5.865 0 0 1 995.401 78.1 A 5.034 5.034 0 0 1 993.758 77.842 A 4.286 4.286 0 0 1 992.101 76.8 A 4.391 4.391 0 0 1 990.812 73.869 A 5.865 5.865 0 0 1 990.801 73.5 Z M 186.701 44.1 L 181.801 44.1 A 22.94 22.94 0 0 1 183.125 36.983 A 20.677 20.677 0 0 1 184.951 33.2 Q 187.901 28.4 192.801 25.6 Q 197.701 22.8 203.601 22.8 A 28.67 28.67 0 0 1 206.477 22.935 Q 209.874 23.278 211.851 24.5 Q 214.601 26.2 213.901 28.8 A 4.964 4.964 0 0 1 213.647 29.674 Q 213.454 30.155 213.169 30.505 A 2.455 2.455 0 0 1 212.701 30.95 Q 211.801 31.6 210.601 31.65 Q 209.401 31.7 208.001 31.5 Q 202.985 30.678 198.848 31.411 A 20.077 20.077 0 0 0 197.101 31.8 A 17.528 17.528 0 0 0 193.161 33.368 A 13.554 13.554 0 0 0 189.501 36.3 A 11.247 11.247 0 0 0 186.725 43.25 A 14.497 14.497 0 0 0 186.701 44.1 Z M 162.801 33.3 L 137.601 33.3 A 5.334 5.334 0 0 1 136.281 33.146 A 3.82 3.82 0 0 1 134.551 32.2 A 3.673 3.673 0 0 1 133.404 29.571 A 4.895 4.895 0 0 1 133.401 29.4 A 4.571 4.571 0 0 1 133.583 28.077 A 3.573 3.573 0 0 1 134.551 26.5 A 3.879 3.879 0 0 1 136.539 25.497 A 5.554 5.554 0 0 1 137.601 25.4 L 162.801 25.4 A 5.362 5.362 0 0 1 164.204 25.575 A 4.027 4.027 0 0 1 165.901 26.5 A 3.646 3.646 0 0 1 167.082 28.961 A 5.031 5.031 0 0 1 167.101 29.4 A 3.933 3.933 0 0 1 166.837 30.862 A 3.606 3.606 0 0 1 165.901 32.2 A 4.122 4.122 0 0 1 163.734 33.227 A 5.731 5.731 0 0 1 162.801 33.3 Z M 863.101 33.3 L 839.001 33.3 A 4.845 4.845 0 0 1 837.505 33.078 A 4.038 4.038 0 0 1 836.001 32.2 A 3.604 3.604 0 0 1 834.804 29.571 A 4.691 4.691 0 0 1 834.801 29.4 A 4.379 4.379 0 0 1 834.999 28.053 A 3.552 3.552 0 0 1 836.001 26.5 A 4.152 4.152 0 0 1 838.506 25.422 A 5.504 5.504 0 0 1 839.001 25.4 L 863.101 25.4 A 4.845 4.845 0 0 1 864.597 25.622 A 4.038 4.038 0 0 1 866.101 26.5 A 3.646 3.646 0 0 1 867.282 28.961 A 5.031 5.031 0 0 1 867.301 29.4 A 3.933 3.933 0 0 1 867.037 30.862 A 3.606 3.606 0 0 1 866.101 32.2 A 4.152 4.152 0 0 1 863.595 33.278 A 5.504 5.504 0 0 1 863.101 33.3 Z M 421.201 73.6 L 421.201 57.6 L 423.101 48 L 430.501 50.8 L 430.501 73.6 A 4.851 4.851 0 0 1 430.223 75.269 A 4.269 4.269 0 0 1 429.151 76.9 A 4.604 4.604 0 0 1 425.989 78.197 A 6.015 6.015 0 0 1 425.801 78.2 A 5.034 5.034 0 0 1 424.158 77.942 A 4.286 4.286 0 0 1 422.501 76.9 A 4.391 4.391 0 0 1 421.212 73.969 A 5.865 5.865 0 0 1 421.201 73.6 Z M 575.057 12.156 A 5.859 5.859 0 0 0 579.301 13.9 A 7.455 7.455 0 0 0 579.382 13.9 A 5.975 5.975 0 0 0 583.701 12.1 A 6.135 6.135 0 0 0 584.931 10.372 A 6.192 6.192 0 0 0 585.501 7.7 A 7.172 7.172 0 0 0 585.498 7.498 A 5.719 5.719 0 0 0 583.651 3.35 Q 581.801 1.6 579.401 1.6 Q 576.901 1.6 575.051 3.35 A 5.869 5.869 0 0 0 573.723 5.178 A 5.993 5.993 0 0 0 573.201 7.7 A 7.455 7.455 0 0 0 573.201 7.781 A 5.975 5.975 0 0 0 575.001 12.1 A 7.279 7.279 0 0 0 575.057 12.156 Z M 813.657 12.156 A 5.859 5.859 0 0 0 817.901 13.9 A 7.455 7.455 0 0 0 817.982 13.9 A 5.975 5.975 0 0 0 822.301 12.1 A 6.135 6.135 0 0 0 823.531 10.372 A 6.192 6.192 0 0 0 824.101 7.7 A 7.172 7.172 0 0 0 824.098 7.498 A 5.719 5.719 0 0 0 822.251 3.35 Q 820.401 1.6 818.001 1.6 Q 815.501 1.6 813.651 3.35 A 5.869 5.869 0 0 0 812.323 5.178 A 5.993 5.993 0 0 0 811.801 7.7 A 7.455 7.455 0 0 0 811.801 7.781 A 5.975 5.975 0 0 0 813.601 12.1 A 7.279 7.279 0 0 0 813.657 12.156 Z" vector-effect="non-scaling-stroke"/></g></svg>