<svg width="648.6" height="104.1" viewBox="0 0 648.6 104.1" xmlns="http://www.w3.org/2000/svg"><g id="svgGroup" stroke-linecap="round" fill-rule="evenodd" font-size="9pt" stroke="#ffffff" stroke-width="0.25mm" fill="#ffffff" style="stroke:#ffffff;stroke-width:0.25mm;fill:#ffffff"><path d="M 221.5 84.2 L 213 84.2 L 241.7 45.4 L 241.7 51.1 L 214.7 14.2 L 223.2 14.2 L 245.9 45 L 242.6 45.1 L 265.3 14.2 L 273.3 14.2 L 246.6 50.6 L 246.6 45.4 L 275.2 84.2 L 266.6 84.2 L 242.4 51.3 L 245.5 51.3 L 221.5 84.2 Z M 441.4 60.1 L 395.7 60.1 L 395.7 54.8 L 437.6 54.8 L 434.8 56.9 A 22.634 22.634 0 0 0 434.067 51.039 A 19.05 19.05 0 0 0 432.35 46.75 Q 429.9 42.3 425.7 39.8 A 17.782 17.782 0 0 0 418.507 37.437 A 22.358 22.358 0 0 0 416 37.3 A 20.019 20.019 0 0 0 409.827 38.228 A 17.942 17.942 0 0 0 406.3 39.8 Q 402 42.3 399.6 46.8 A 20.365 20.365 0 0 0 397.39 53.94 A 25.622 25.622 0 0 0 397.2 57.1 L 397.2 58.2 Q 397.2 64.2 399.85 68.75 Q 402.5 73.3 407.25 75.85 A 21.44 21.44 0 0 0 414.955 78.22 A 26.835 26.835 0 0 0 418.1 78.4 A 23.898 23.898 0 0 0 425.203 77.362 A 22.114 22.114 0 0 0 427.05 76.7 Q 431.2 75 434.2 71.5 L 438.2 76.1 Q 434.7 80.3 429.45 82.5 Q 424.2 84.7 417.9 84.7 A 32.996 32.996 0 0 1 410.228 83.844 A 26.321 26.321 0 0 1 403.5 81.25 Q 397.3 77.8 393.8 71.75 A 26.104 26.104 0 0 1 390.468 61.229 A 32.409 32.409 0 0 1 390.3 57.9 Q 390.3 50.1 393.65 44.1 Q 397 38.1 402.85 34.65 A 25.072 25.072 0 0 1 414.644 31.23 A 30.064 30.064 0 0 1 416 31.2 A 27.896 27.896 0 0 1 423.6 32.202 A 23.815 23.815 0 0 1 429.15 34.55 Q 434.9 37.9 438.2 43.95 A 26.916 26.916 0 0 1 441.209 53.372 A 34.255 34.255 0 0 1 441.5 57.9 A 11.163 11.163 0 0 1 441.473 58.661 A 12.957 12.957 0 0 1 441.45 58.95 Q 441.4 59.5 441.4 60.1 Z M 0 54.3 L 0 14.2 L 7.4 14.2 L 7.4 54 A 43.544 43.544 0 0 0 7.881 60.708 Q 8.42 64.157 9.564 66.905 A 17.529 17.529 0 0 0 13 72.3 A 18.238 18.238 0 0 0 22.063 77.438 Q 24.942 78.152 28.344 78.197 A 34.738 34.738 0 0 0 28.8 78.2 Q 39.1 78.2 44.7 72.3 Q 48.922 67.852 49.961 59.709 A 45.194 45.194 0 0 0 50.3 54 L 50.3 14.2 L 57.5 14.2 L 57.5 54.3 Q 57.5 64.696 53.874 71.584 A 22.908 22.908 0 0 1 49.85 77.1 Q 42.2 84.8 28.8 84.8 A 37.562 37.562 0 0 1 19.949 83.816 A 25.377 25.377 0 0 1 7.7 77.1 Q 0 69.4 0 54.3 Z M 142.9 54.3 L 142.9 14.2 L 150.3 14.2 L 150.3 54 A 43.544 43.544 0 0 0 150.781 60.708 Q 151.32 64.157 152.464 66.905 A 17.529 17.529 0 0 0 155.9 72.3 A 18.238 18.238 0 0 0 164.963 77.438 Q 167.842 78.152 171.244 78.197 A 34.738 34.738 0 0 0 171.7 78.2 Q 182 78.2 187.6 72.3 Q 191.822 67.852 192.861 59.709 A 45.194 45.194 0 0 0 193.2 54 L 193.2 14.2 L 200.4 14.2 L 200.4 54.3 Q 200.4 64.696 196.774 71.584 A 22.908 22.908 0 0 1 192.75 77.1 Q 185.1 84.8 171.7 84.8 A 37.562 37.562 0 0 1 162.849 83.816 A 25.377 25.377 0 0 1 150.6 77.1 Q 142.9 69.4 142.9 54.3 Z M 607.3 84.2 L 600.2 84.2 L 600.2 31.7 L 607 31.7 L 607 46.1 L 605.9 43.4 Q 608.4 37.7 613.9 34.45 A 23 23 0 0 1 621.809 31.62 A 30.848 30.848 0 0 1 627 31.2 A 28.355 28.355 0 0 1 632.836 31.775 A 21.96 21.96 0 0 1 638.25 33.65 Q 643.1 36.1 645.85 41.1 A 20.661 20.661 0 0 1 647.824 46.359 Q 648.6 49.663 648.6 53.7 L 648.6 84.2 L 641.5 84.2 L 641.5 54.4 A 26.47 26.47 0 0 0 641.095 49.608 Q 640.607 46.963 639.533 44.891 A 12.661 12.661 0 0 0 637.35 41.85 Q 633.309 37.712 626.093 37.603 A 26.007 26.007 0 0 0 625.7 37.6 A 23.5 23.5 0 0 0 620.769 38.094 A 17.937 17.937 0 0 0 615.95 39.85 Q 611.8 42.1 609.55 46.35 A 18.643 18.643 0 0 0 607.762 51.522 Q 607.3 53.881 607.3 56.6 L 607.3 84.2 Z M 448.7 78.2 L 451.9 72.6 A 24.061 24.061 0 0 0 455.17 74.642 Q 456.817 75.505 458.767 76.259 A 43.852 43.852 0 0 0 460.1 76.75 Q 465.1 78.5 470.6 78.5 A 38.045 38.045 0 0 0 474.288 78.334 Q 477.969 77.974 480.254 76.833 A 8.582 8.582 0 0 0 481.4 76.15 A 8.246 8.246 0 0 0 483.506 74.031 Q 484.681 72.274 484.7 69.973 A 9.165 9.165 0 0 0 484.7 69.9 Q 484.7 67 482.85 65.35 Q 481 63.7 478 62.85 Q 475 62 471.3 61.4 Q 467.6 60.8 463.95 60 Q 460.3 59.2 457.3 57.65 Q 454.3 56.1 452.45 53.4 Q 450.903 51.142 450.65 47.624 A 19.85 19.85 0 0 1 450.6 46.2 Q 450.6 41.9 453 38.5 A 14.175 14.175 0 0 1 456.82 34.855 A 19.547 19.547 0 0 1 460.05 33.15 Q 464.7 31.2 471.4 31.2 Q 476.5 31.2 481.6 32.55 A 36.36 36.36 0 0 1 485.447 33.787 Q 487.352 34.526 488.914 35.427 A 19.632 19.632 0 0 1 490 36.1 L 486.9 41.8 Q 483.4 39.4 479.4 38.35 Q 475.4 37.3 471.4 37.3 A 32.758 32.758 0 0 0 467.703 37.494 Q 463.882 37.929 461.559 39.344 A 8.66 8.66 0 0 0 460.95 39.75 A 8.953 8.953 0 0 0 458.942 41.731 A 7.122 7.122 0 0 0 457.6 46 A 7.818 7.818 0 0 0 457.839 47.988 A 5.491 5.491 0 0 0 459.45 50.7 A 10.687 10.687 0 0 0 461.677 52.254 Q 462.723 52.81 463.985 53.232 A 18.53 18.53 0 0 0 464.35 53.35 A 45.549 45.549 0 0 0 468.29 54.378 A 56.767 56.767 0 0 0 471.05 54.9 Q 474.7 55.5 478.35 56.35 A 34.652 34.652 0 0 1 483.085 57.802 A 29.738 29.738 0 0 1 485.05 58.65 Q 488.1 60.1 489.95 62.75 Q 491.572 65.074 491.772 68.667 A 18.628 18.628 0 0 1 491.8 69.7 A 13.904 13.904 0 0 1 491.122 74.111 A 12.115 12.115 0 0 1 489.25 77.65 A 14.318 14.318 0 0 1 485.472 81.061 A 20.171 20.171 0 0 1 481.85 82.85 A 26.155 26.155 0 0 1 477.034 84.147 Q 474.664 84.562 471.948 84.665 A 48.422 48.422 0 0 1 470.1 84.7 Q 463.6 84.7 457.8 82.85 A 36.765 36.765 0 0 1 453.878 81.363 Q 451.947 80.494 450.407 79.475 A 17.868 17.868 0 0 1 448.7 78.2 Z M 343 84.2 L 314.5 84.2 L 314.5 14.2 L 343 14.2 A 47.75 47.75 0 0 1 353.205 15.244 A 37.199 37.199 0 0 1 362.65 18.65 Q 371.1 23.1 375.8 31 A 33.506 33.506 0 0 1 380.273 44.79 A 41.955 41.955 0 0 1 380.5 49.2 A 38.361 38.361 0 0 1 379.174 59.466 A 32.27 32.27 0 0 1 375.8 67.4 Q 371.1 75.3 362.65 79.75 A 38.233 38.233 0 0 1 350.395 83.671 A 49.949 49.949 0 0 1 343 84.2 Z M 529.6 96 L 533.2 90.6 A 25.166 25.166 0 0 0 538.509 94.198 A 32.211 32.211 0 0 0 542.35 95.85 A 34.013 34.013 0 0 0 553.852 97.8 A 37.828 37.828 0 0 0 553.9 97.8 Q 560.095 97.8 564.257 96.015 A 13.868 13.868 0 0 0 568.6 93.15 Q 573.3 88.5 573.3 78.7 L 573.3 65.6 L 574.3 56.6 L 573.6 47.6 L 573.6 31.7 L 580.4 31.7 L 580.4 77.8 A 43.992 43.992 0 0 1 579.829 85.146 Q 579.173 89.013 577.761 92.057 A 18.578 18.578 0 0 1 573.75 97.75 Q 568.261 102.992 558.445 103.907 A 46.85 46.85 0 0 1 554.1 104.1 A 45.238 45.238 0 0 1 540.3 102 A 32.798 32.798 0 0 1 535.004 99.818 A 23.851 23.851 0 0 1 529.6 96 Z M 102.6 94.2 L 96.1 94.2 L 129.1 0 L 135.6 0 L 102.6 94.2 Z M 321.9 20.6 L 321.9 77.8 L 342.6 77.8 A 39.894 39.894 0 0 0 350.653 77.025 A 29.968 29.968 0 0 0 358.75 74.15 Q 365.6 70.5 369.4 64.05 A 27.505 27.505 0 0 0 373.005 52.906 A 34.446 34.446 0 0 0 373.2 49.2 Q 373.2 40.7 369.4 34.3 Q 365.6 27.9 358.75 24.25 A 30.453 30.453 0 0 0 349.492 21.157 A 40.893 40.893 0 0 0 342.6 20.6 L 321.9 20.6 Z M 544.423 81.054 A 29.757 29.757 0 0 0 552.8 82.2 Q 559.8 82.2 565.4 79.2 Q 571 76.2 574.3 70.5 A 21.239 21.239 0 0 0 574.599 69.966 Q 576.322 66.782 577.055 62.85 A 34.067 34.067 0 0 0 577.6 56.6 A 40.242 40.242 0 0 0 577.598 56.153 Q 577.561 52.818 576.968 49.904 A 23.674 23.674 0 0 0 574.3 42.7 Q 571 37 565.4 34.1 Q 559.8 31.2 552.8 31.2 Q 545.3 31.2 539.3 34.4 Q 533.3 37.6 529.85 43.35 Q 526.4 49.1 526.4 56.6 Q 526.4 64.1 529.85 69.9 Q 533.3 75.7 539.3 78.95 A 26.054 26.054 0 0 0 544.423 81.054 Z M 87.2 84.2 L 79.8 84.2 L 79.8 14.2 L 87.2 14.2 L 87.2 84.2 Z M 553.5 75.9 A 23.41 23.41 0 0 0 559.296 75.209 A 19.387 19.387 0 0 0 563.8 73.45 Q 568.3 71 570.9 66.65 A 18.368 18.368 0 0 0 573.357 59.198 A 23.087 23.087 0 0 0 573.5 56.6 Q 573.5 50.9 570.9 46.6 Q 568.3 42.3 563.8 39.85 Q 559.3 37.4 553.5 37.4 A 22.769 22.769 0 0 0 547.176 38.252 A 19.812 19.812 0 0 0 543.25 39.85 Q 538.7 42.3 536.15 46.6 Q 533.6 50.9 533.6 56.6 A 21.65 21.65 0 0 0 534.278 62.119 A 17.915 17.915 0 0 0 536.15 66.65 Q 538.7 71 543.25 73.45 A 20.63 20.63 0 0 0 551.403 75.814 A 25.118 25.118 0 0 0 553.5 75.9 Z M 511.9 84.2 L 504.8 84.2 L 504.8 31.7 L 511.9 31.7 L 511.9 84.2 Z M 506.317 19.701 A 5.319 5.319 0 0 0 508.4 20.1 A 6.595 6.595 0 0 0 508.962 20.077 A 4.855 4.855 0 0 0 512.15 18.6 Q 513.6 17.1 513.6 14.9 A 5.746 5.746 0 0 0 513.597 14.705 A 4.564 4.564 0 0 0 512.1 11.4 A 5.06 5.06 0 0 0 510.367 10.328 A 5.705 5.705 0 0 0 508.4 10 A 6.621 6.621 0 0 0 508.323 10 A 5.104 5.104 0 0 0 504.7 11.45 A 5.686 5.686 0 0 0 504.608 11.541 A 4.737 4.737 0 0 0 503.2 15 A 5.844 5.844 0 0 0 503.2 15.065 A 4.905 4.905 0 0 0 504.7 18.6 A 5.04 5.04 0 0 0 506.317 19.701 Z" vector-effect="non-scaling-stroke"/></g></svg>