<svg width="948.5" height="93.6" viewBox="0 0 948.5 93.6" xmlns="http://www.w3.org/2000/svg"><g id="svgGroup" stroke-linecap="round" fill-rule="evenodd" font-size="9pt" stroke="#ffffff" stroke-width="0.25mm" fill="#ffffff" style="stroke:#ffffff;stroke-width:0.25mm;fill:#ffffff"><path d="M 31.3 74.2 L 23.6 74.2 L 0 4.2 L 7.6 4.2 L 29.7 70.1 L 25.9 70.1 L 48.7 4.2 L 55.5 4.2 L 78 70.1 L 74.4 70.1 L 96.7 4.2 L 103.8 4.2 L 80.2 74.2 L 72.4 74.2 L 50.9 11.7 L 52.9 11.7 L 31.3 74.2 Z M 693.8 74.2 L 686.7 74.2 L 686.7 21.7 L 693.5 21.7 L 693.5 35.9 L 692.4 33.4 Q 694.8 27.7 700.15 24.45 A 22.157 22.157 0 0 1 708.376 21.525 A 29.075 29.075 0 0 1 712.8 21.2 A 25.636 25.636 0 0 1 719.254 21.977 A 19.982 19.982 0 0 1 725.9 25.05 A 16.619 16.619 0 0 1 731.679 32.522 A 23.522 23.522 0 0 1 732.9 36.6 L 730.1 35.5 Q 732.4 29.1 738.25 25.15 A 22.848 22.848 0 0 1 747.638 21.548 A 30.167 30.167 0 0 1 752.3 21.2 A 28.203 28.203 0 0 1 757.893 21.729 A 21.234 21.234 0 0 1 763.45 23.65 A 17.109 17.109 0 0 1 770.682 30.79 A 20.784 20.784 0 0 1 770.85 31.1 Q 773.5 36.1 773.5 43.7 L 773.5 74.2 L 766.4 74.2 L 766.4 44.4 Q 766.4 38.805 764.605 35.05 A 12.723 12.723 0 0 0 762.45 31.85 A 12.875 12.875 0 0 0 755.771 28.08 A 19.631 19.631 0 0 0 751.3 27.6 A 21.784 21.784 0 0 0 746.63 28.078 A 16.551 16.551 0 0 0 741.95 29.85 Q 738 32.1 735.85 36.35 A 19.137 19.137 0 0 0 734.172 41.36 Q 733.7 43.788 733.7 46.6 L 733.7 74.2 L 726.6 74.2 L 726.6 44.4 A 27.475 27.475 0 0 0 726.214 39.636 Q 725.358 34.78 722.6 31.85 A 13.087 13.087 0 0 0 715.792 28.06 A 19.785 19.785 0 0 0 711.4 27.6 A 21.121 21.121 0 0 0 706.443 28.158 A 16.865 16.865 0 0 0 702.1 29.85 Q 698.1 32.1 695.95 36.35 A 19.137 19.137 0 0 0 694.272 41.36 Q 693.8 43.788 693.8 46.6 L 693.8 74.2 Z M 514.7 50.1 L 469 50.1 L 469 44.8 L 510.9 44.8 L 508.1 46.9 A 22.634 22.634 0 0 0 507.367 41.039 A 19.05 19.05 0 0 0 505.65 36.75 Q 503.2 32.3 499 29.8 A 17.782 17.782 0 0 0 491.807 27.437 A 22.358 22.358 0 0 0 489.3 27.3 A 20.019 20.019 0 0 0 483.127 28.228 A 17.942 17.942 0 0 0 479.6 29.8 Q 475.3 32.3 472.9 36.8 A 20.365 20.365 0 0 0 470.69 43.94 A 25.622 25.622 0 0 0 470.5 47.1 L 470.5 48.2 Q 470.5 54.2 473.15 58.75 Q 475.8 63.3 480.55 65.85 A 21.44 21.44 0 0 0 488.255 68.22 A 26.835 26.835 0 0 0 491.4 68.4 A 23.898 23.898 0 0 0 498.503 67.362 A 22.114 22.114 0 0 0 500.35 66.7 Q 504.5 65 507.5 61.5 L 511.5 66.1 Q 508 70.3 502.75 72.5 Q 497.5 74.7 491.2 74.7 A 32.996 32.996 0 0 1 483.528 73.844 A 26.321 26.321 0 0 1 476.8 71.25 Q 470.6 67.8 467.1 61.75 A 26.104 26.104 0 0 1 463.767 51.229 A 32.409 32.409 0 0 1 463.6 47.9 Q 463.6 40.1 466.95 34.1 Q 470.3 28.1 476.15 24.65 A 25.072 25.072 0 0 1 487.944 21.23 A 30.064 30.064 0 0 1 489.3 21.2 A 27.896 27.896 0 0 1 496.9 22.202 A 23.815 23.815 0 0 1 502.45 24.55 Q 508.2 27.9 511.5 33.95 A 26.916 26.916 0 0 1 514.509 43.372 A 34.255 34.255 0 0 1 514.8 47.9 A 11.163 11.163 0 0 1 514.773 48.661 A 12.957 12.957 0 0 1 514.75 48.95 Q 514.7 49.5 514.7 50.1 Z M 163.1 50.1 L 117.4 50.1 L 117.4 44.8 L 159.3 44.8 L 156.5 46.9 A 22.634 22.634 0 0 0 155.767 41.039 A 19.05 19.05 0 0 0 154.05 36.75 Q 151.6 32.3 147.4 29.8 A 17.782 17.782 0 0 0 140.207 27.437 A 22.358 22.358 0 0 0 137.7 27.3 A 20.019 20.019 0 0 0 131.527 28.228 A 17.942 17.942 0 0 0 128 29.8 Q 123.7 32.3 121.3 36.8 A 20.365 20.365 0 0 0 119.09 43.94 A 25.622 25.622 0 0 0 118.9 47.1 L 118.9 48.2 Q 118.9 54.2 121.55 58.75 Q 124.2 63.3 128.95 65.85 A 21.44 21.44 0 0 0 136.655 68.22 A 26.835 26.835 0 0 0 139.8 68.4 A 23.898 23.898 0 0 0 146.903 67.362 A 22.114 22.114 0 0 0 148.75 66.7 Q 152.9 65 155.9 61.5 L 159.9 66.1 Q 156.4 70.3 151.15 72.5 Q 145.9 74.7 139.6 74.7 A 32.996 32.996 0 0 1 131.928 73.844 A 26.321 26.321 0 0 1 125.2 71.25 Q 119 67.8 115.5 61.75 A 26.104 26.104 0 0 1 112.167 51.229 A 32.409 32.409 0 0 1 112 47.9 Q 112 40.1 115.35 34.1 Q 118.7 28.1 124.55 24.65 A 25.072 25.072 0 0 1 136.344 21.23 A 30.064 30.064 0 0 1 137.7 21.2 A 27.896 27.896 0 0 1 145.3 22.202 A 23.815 23.815 0 0 1 150.85 24.55 Q 156.6 27.9 159.9 33.95 A 26.916 26.916 0 0 1 162.909 43.372 A 34.255 34.255 0 0 1 163.2 47.9 A 11.163 11.163 0 0 1 163.173 48.661 A 12.957 12.957 0 0 1 163.15 48.95 Q 163.1 49.5 163.1 50.1 Z M 838.6 50.1 L 792.9 50.1 L 792.9 44.8 L 834.8 44.8 L 832 46.9 A 22.634 22.634 0 0 0 831.267 41.039 A 19.05 19.05 0 0 0 829.55 36.75 Q 827.1 32.3 822.9 29.8 A 17.782 17.782 0 0 0 815.707 27.437 A 22.358 22.358 0 0 0 813.2 27.3 A 20.019 20.019 0 0 0 807.027 28.228 A 17.942 17.942 0 0 0 803.5 29.8 Q 799.2 32.3 796.8 36.8 A 20.365 20.365 0 0 0 794.59 43.94 A 25.622 25.622 0 0 0 794.4 47.1 L 794.4 48.2 Q 794.4 54.2 797.05 58.75 Q 799.7 63.3 804.45 65.85 A 21.44 21.44 0 0 0 812.155 68.22 A 26.835 26.835 0 0 0 815.3 68.4 A 23.898 23.898 0 0 0 822.403 67.362 A 22.114 22.114 0 0 0 824.25 66.7 Q 828.4 65 831.4 61.5 L 835.4 66.1 Q 831.9 70.3 826.65 72.5 Q 821.4 74.7 815.1 74.7 A 32.996 32.996 0 0 1 807.428 73.844 A 26.321 26.321 0 0 1 800.7 71.25 Q 794.5 67.8 791 61.75 A 26.104 26.104 0 0 1 787.667 51.229 A 32.409 32.409 0 0 1 787.5 47.9 Q 787.5 40.1 790.85 34.1 Q 794.2 28.1 800.05 24.65 A 25.072 25.072 0 0 1 811.844 21.23 A 30.064 30.064 0 0 1 813.2 21.2 A 27.896 27.896 0 0 1 820.8 22.202 A 23.815 23.815 0 0 1 826.35 24.55 Q 832.1 27.9 835.4 33.95 A 26.916 26.916 0 0 1 838.409 43.372 A 34.255 34.255 0 0 1 838.7 47.9 A 11.163 11.163 0 0 1 838.673 48.661 A 12.957 12.957 0 0 1 838.65 48.95 Q 838.6 49.5 838.6 50.1 Z M 400.1 50.1 L 354.4 50.1 L 354.4 44.8 L 396.3 44.8 L 393.5 46.9 A 22.634 22.634 0 0 0 392.767 41.039 A 19.05 19.05 0 0 0 391.05 36.75 Q 388.6 32.3 384.4 29.8 A 17.782 17.782 0 0 0 377.207 27.437 A 22.358 22.358 0 0 0 374.7 27.3 A 20.019 20.019 0 0 0 368.527 28.228 A 17.942 17.942 0 0 0 365 29.8 Q 360.7 32.3 358.3 36.8 A 20.365 20.365 0 0 0 356.09 43.94 A 25.622 25.622 0 0 0 355.9 47.1 L 355.9 48.2 Q 355.9 54.2 358.55 58.75 Q 361.2 63.3 365.95 65.85 A 21.44 21.44 0 0 0 373.655 68.22 A 26.835 26.835 0 0 0 376.8 68.4 A 23.898 23.898 0 0 0 383.903 67.362 A 22.114 22.114 0 0 0 385.75 66.7 Q 389.9 65 392.9 61.5 L 396.9 66.1 Q 393.4 70.3 388.15 72.5 Q 382.9 74.7 376.6 74.7 A 32.996 32.996 0 0 1 368.928 73.844 A 26.321 26.321 0 0 1 362.2 71.25 Q 356 67.8 352.5 61.75 A 26.104 26.104 0 0 1 349.167 51.229 A 32.409 32.409 0 0 1 349 47.9 Q 349 40.1 352.35 34.1 Q 355.7 28.1 361.55 24.65 A 25.072 25.072 0 0 1 373.344 21.23 A 30.064 30.064 0 0 1 374.7 21.2 A 27.896 27.896 0 0 1 382.3 22.202 A 23.815 23.815 0 0 1 387.85 24.55 Q 393.6 27.9 396.9 33.95 A 26.916 26.916 0 0 1 399.909 43.372 A 34.255 34.255 0 0 1 400.2 47.9 A 11.163 11.163 0 0 1 400.173 48.661 A 12.957 12.957 0 0 1 400.15 48.95 Q 400.1 49.5 400.1 50.1 Z M 860.3 74.2 L 853.2 74.2 L 853.2 21.7 L 860 21.7 L 860 36.1 L 858.9 33.4 Q 861.4 27.7 866.9 24.45 A 23 23 0 0 1 874.809 21.62 A 30.848 30.848 0 0 1 880 21.2 A 28.355 28.355 0 0 1 885.836 21.775 A 21.96 21.96 0 0 1 891.25 23.65 Q 896.1 26.1 898.85 31.1 A 20.661 20.661 0 0 1 900.824 36.359 Q 901.6 39.663 901.6 43.7 L 901.6 74.2 L 894.5 74.2 L 894.5 44.4 A 26.47 26.47 0 0 0 894.095 39.608 Q 893.607 36.963 892.533 34.891 A 12.661 12.661 0 0 0 890.35 31.85 Q 886.309 27.712 879.093 27.603 A 26.007 26.007 0 0 0 878.7 27.6 A 23.5 23.5 0 0 0 873.769 28.094 A 17.937 17.937 0 0 0 868.95 29.85 Q 864.8 32.1 862.55 36.35 A 18.643 18.643 0 0 0 860.762 41.522 Q 860.3 43.881 860.3 46.6 L 860.3 74.2 Z M 435.5 74.2 L 428.2 74.2 L 404.9 21.7 L 412.3 21.7 L 433.7 70.4 L 430.2 70.4 L 451.9 21.7 L 458.9 21.7 L 435.5 74.2 Z M 301.7 74.2 L 273.2 74.2 L 273.2 4.2 L 301.7 4.2 A 47.75 47.75 0 0 1 311.905 5.244 A 37.199 37.199 0 0 1 321.35 8.65 Q 329.8 13.1 334.5 21 A 33.506 33.506 0 0 1 338.973 34.79 A 41.955 41.955 0 0 1 339.2 39.2 A 38.361 38.361 0 0 1 337.874 49.466 A 32.27 32.27 0 0 1 334.5 57.4 Q 329.8 65.3 321.35 69.75 A 38.233 38.233 0 0 1 309.095 73.671 A 49.949 49.949 0 0 1 301.7 74.2 Z M 280.6 10.6 L 280.6 67.8 L 301.3 67.8 A 39.894 39.894 0 0 0 309.353 67.025 A 29.968 29.968 0 0 0 317.45 64.15 Q 324.3 60.5 328.1 54.05 A 27.505 27.505 0 0 0 331.705 42.906 A 34.446 34.446 0 0 0 331.9 39.2 Q 331.9 30.7 328.1 24.3 Q 324.3 17.9 317.45 14.25 A 30.453 30.453 0 0 0 308.192 11.157 A 40.893 40.893 0 0 0 301.3 10.6 L 280.6 10.6 Z M 922 59.4 L 922 10.1 L 929.1 10.1 L 929.1 59 A 14.449 14.449 0 0 0 929.353 61.793 Q 929.675 63.425 930.406 64.691 A 7.586 7.586 0 0 0 931.45 66.1 A 7.58 7.58 0 0 0 935.075 68.219 Q 936.306 68.552 937.775 68.594 A 14.97 14.97 0 0 0 938.2 68.6 A 13.473 13.473 0 0 0 941.881 68.119 A 10.575 10.575 0 0 0 946 65.9 L 948.5 71 A 12.822 12.822 0 0 1 944.351 73.494 A 15.202 15.202 0 0 1 943.45 73.8 Q 940.5 74.7 937.4 74.7 A 21.973 21.973 0 0 1 932.91 74.269 Q 930.139 73.691 928.029 72.334 A 12.159 12.159 0 0 1 926 70.7 Q 922.254 66.954 922.016 60.313 A 25.527 25.527 0 0 1 922 59.4 Z M 569.121 73.484 A 28.771 28.771 0 0 0 577.6 74.7 A 32.648 32.648 0 0 0 580.2 74.598 A 26.789 26.789 0 0 0 591.4 71.25 Q 597.5 67.8 600.95 61.75 A 25.372 25.372 0 0 0 603.426 55.694 A 30.134 30.134 0 0 0 604.4 47.9 A 32.857 32.857 0 0 0 604.127 43.607 A 25.832 25.832 0 0 0 600.95 34 Q 597.5 28 591.45 24.6 A 25.584 25.584 0 0 0 585.394 22.16 A 30.552 30.552 0 0 0 577.6 21.2 A 32.546 32.546 0 0 0 574.313 21.363 A 26.244 26.244 0 0 0 563.9 24.6 Q 557.9 28 554.4 34 Q 550.9 40 550.9 47.9 A 32.409 32.409 0 0 0 551.067 51.229 A 26.104 26.104 0 0 0 554.4 61.75 Q 557.9 67.8 563.95 71.25 A 25.499 25.499 0 0 0 569.121 73.484 Z M 637.635 73.343 A 25.302 25.302 0 0 0 646 74.7 Q 653.5 74.7 659.45 71.3 Q 665.4 67.9 668.8 61.9 A 25.209 25.209 0 0 0 671.402 55.181 A 31.863 31.863 0 0 0 672.2 47.9 A 33.425 33.425 0 0 0 671.931 43.603 A 26.431 26.431 0 0 0 668.8 33.95 Q 665.4 27.9 659.45 24.55 A 25.219 25.219 0 0 0 654.308 22.366 A 28.773 28.773 0 0 0 646 21.2 A 29.342 29.342 0 0 0 643.878 21.276 A 24.222 24.222 0 0 0 633.6 24.3 A 21.353 21.353 0 0 0 629.926 26.912 A 23.095 23.095 0 0 0 624.9 33.35 A 22.82 22.82 0 0 0 624.334 34.477 Q 621.7 40.098 621.7 47.9 A 44.301 44.301 0 0 0 621.711 48.899 Q 621.789 52.362 622.414 55.38 A 25.399 25.399 0 0 0 624.95 62.45 A 27.14 27.14 0 0 0 625.418 63.273 A 22.591 22.591 0 0 0 633.7 71.55 A 23.285 23.285 0 0 0 637.635 73.343 Z M 196.91 73.53 A 25.932 25.932 0 0 0 204.8 74.7 Q 212.3 74.7 218.25 71.3 Q 224.2 67.9 227.6 61.85 A 25.544 25.544 0 0 0 230.096 55.555 A 31.196 31.196 0 0 0 231 47.9 Q 231 39.9 227.6 33.9 Q 224.2 27.9 218.25 24.55 A 25.219 25.219 0 0 0 213.108 22.366 A 28.773 28.773 0 0 0 204.8 21.2 A 29.03 29.03 0 0 0 203.484 21.23 A 24.283 24.283 0 0 0 192.5 24.3 A 21.566 21.566 0 0 0 188.691 27.026 A 23.534 23.534 0 0 0 183.75 33.35 A 22.683 22.683 0 0 0 183.175 34.477 Q 180.5 40.098 180.5 47.9 A 44.599 44.599 0 0 0 180.503 48.379 Q 180.591 56.57 183.7 62.4 A 26.783 26.783 0 0 0 184.214 63.32 A 22.157 22.157 0 0 0 192.4 71.55 A 23.133 23.133 0 0 0 196.91 73.53 Z M 536.4 74.2 L 529.3 74.2 L 529.3 0 L 536.4 0 L 536.4 74.2 Z M 184.5 74.2 L 177.7 74.2 L 177.7 0 L 184.8 0 L 184.8 37.2 L 183.8 47.8 L 184.5 58.4 L 184.5 74.2 Z M 626 93.6 L 618.9 93.6 L 618.9 21.7 L 625.7 21.7 L 625.7 37.5 L 625 48 L 626 58.6 L 626 93.6 Z M 204.3 68.4 A 21.079 21.079 0 0 0 210.22 67.593 A 18.323 18.323 0 0 0 214.3 65.85 Q 218.7 63.3 221.3 58.65 Q 223.9 54 223.9 47.9 A 24.984 24.984 0 0 0 223.329 42.439 A 19.374 19.374 0 0 0 221.3 37.1 Q 218.7 32.5 214.3 29.95 A 19.029 19.029 0 0 0 206.19 27.475 A 23.325 23.325 0 0 0 204.3 27.4 A 21.111 21.111 0 0 0 198.055 28.299 A 18.695 18.695 0 0 0 194.25 29.95 Q 189.8 32.5 187.25 37.1 A 20.076 20.076 0 0 0 185.015 43.738 A 26.485 26.485 0 0 0 184.7 47.9 Q 184.7 54 187.25 58.65 Q 189.8 63.3 194.25 65.85 A 19.38 19.38 0 0 0 202.578 68.338 A 23.484 23.484 0 0 0 204.3 68.4 Z M 645.5 68.4 A 21.079 21.079 0 0 0 651.42 67.593 A 18.323 18.323 0 0 0 655.5 65.85 Q 659.9 63.3 662.5 58.65 Q 665.1 54 665.1 47.9 A 24.219 24.219 0 0 0 664.46 42.217 A 19.342 19.342 0 0 0 662.5 37.2 Q 659.9 32.6 655.5 30 Q 651.1 27.4 645.5 27.4 A 20.673 20.673 0 0 0 639.102 28.365 A 18.506 18.506 0 0 0 635.45 30 Q 631 32.6 628.45 37.2 A 20.196 20.196 0 0 0 626.155 44.19 A 26.118 26.118 0 0 0 625.9 47.9 Q 625.9 54 628.45 58.65 Q 631 63.3 635.45 65.85 A 19.38 19.38 0 0 0 643.778 68.338 A 23.484 23.484 0 0 0 645.5 68.4 Z M 577.6 68.4 A 21.718 21.718 0 0 0 583.289 67.68 A 18.263 18.263 0 0 0 587.7 65.85 Q 592.1 63.3 594.65 58.65 A 20.562 20.562 0 0 0 596.951 51.571 A 26.257 26.257 0 0 0 597.2 47.9 A 25.455 25.455 0 0 0 596.64 42.439 A 19.608 19.608 0 0 0 594.65 37.1 Q 592.1 32.5 587.7 29.95 A 19.029 19.029 0 0 0 579.59 27.475 A 23.325 23.325 0 0 0 577.7 27.4 A 21.079 21.079 0 0 0 571.78 28.207 A 18.323 18.323 0 0 0 567.7 29.95 Q 563.3 32.5 560.7 37.1 Q 558.1 41.7 558.1 47.9 Q 558.1 54 560.7 58.65 Q 563.3 63.3 567.7 65.85 A 19.039 19.039 0 0 0 576.242 68.36 A 22.881 22.881 0 0 0 577.6 68.4 Z M 945.1 27.6 L 912.6 27.6 L 912.6 21.7 L 945.1 21.7 L 945.1 27.6 Z" vector-effect="non-scaling-stroke"/></g></svg>